<svg width="19" height="16" viewBox="0 0 19 16" fill="none" xmlns="http://www.w3.org/2000/svg">
<path d="M0 7.7551C0 7.11265 0.520817 6.59184 1.16327 6.59184H14.7921L9.69374 2.03019C9.21495 1.6018 9.1741 0.866401 9.60248 0.387616C10.0309 -0.0911682 10.7663 -0.132022 11.2451 0.29637L18.6124 6.88819C18.859 7.10887 19 7.42416 19 7.7551C19 8.08606 18.859 8.40135 18.6124 8.62201L11.2451 15.2139C10.7663 15.6422 10.0309 15.6015 9.60248 15.1227C9.1741 14.6439 9.21495 13.9084 9.69374 13.48L14.7921 8.91837H1.16327C0.520817 8.91837 0 8.39757 0 7.7551Z" fill="#112940"/>
</svg>
