<svg width="40" height="20" viewBox="0 0 40 20" fill="none" xmlns="http://www.w3.org/2000/svg">
<rect width="40" height="20" rx="5" fill="url(#paint0_linear_378_1922)"/>
<path d="M11.9714 9.692C12.2754 9.74 12.5514 9.864 12.7994 10.064C13.0554 10.264 13.2554 10.512 13.3994 10.808C13.5514 11.104 13.6274 11.42 13.6274 11.756C13.6274 12.18 13.5194 12.564 13.3034 12.908C13.0874 13.244 12.7714 13.512 12.3554 13.712C11.9474 13.904 11.4634 14 10.9034 14H7.78338V5.636H10.7834C11.3514 5.636 11.8354 5.732 12.2354 5.924C12.6354 6.108 12.9354 6.36 13.1354 6.68C13.3354 7 13.4354 7.36 13.4354 7.76C13.4354 8.256 13.2994 8.668 13.0274 8.996C12.7634 9.316 12.4114 9.548 11.9714 9.692ZM8.87538 9.248H10.7114C11.2234 9.248 11.6194 9.128 11.8994 8.888C12.1794 8.648 12.3194 8.316 12.3194 7.892C12.3194 7.468 12.1794 7.136 11.8994 6.896C11.6194 6.656 11.2154 6.536 10.6874 6.536H8.87538V9.248ZM10.8074 13.1C11.3514 13.1 11.7754 12.972 12.0794 12.716C12.3834 12.46 12.5354 12.104 12.5354 11.648C12.5354 11.184 12.3754 10.82 12.0554 10.556C11.7354 10.284 11.3074 10.148 10.7714 10.148H8.87538V13.1H10.8074ZM21.1428 10.46C21.1428 10.668 21.1308 10.888 21.1068 11.12H15.8508C15.8908 11.768 16.1108 12.276 16.5108 12.644C16.9188 13.004 17.4108 13.184 17.9868 13.184C18.4588 13.184 18.8508 13.076 19.1628 12.86C19.4828 12.636 19.7068 12.34 19.8348 11.972H21.0108C20.8348 12.604 20.4828 13.12 19.9548 13.52C19.4268 13.912 18.7708 14.108 17.9868 14.108C17.3628 14.108 16.8028 13.968 16.3068 13.688C15.8188 13.408 15.4348 13.012 15.1548 12.5C14.8748 11.98 14.7348 11.38 14.7348 10.7C14.7348 10.02 14.8708 9.424 15.1428 8.912C15.4148 8.4 15.7948 8.008 16.2828 7.736C16.7788 7.456 17.3468 7.316 17.9868 7.316C18.6108 7.316 19.1628 7.452 19.6428 7.724C20.1228 7.996 20.4908 8.372 20.7468 8.852C21.0108 9.324 21.1428 9.86 21.1428 10.46ZM20.0148 10.232C20.0148 9.816 19.9228 9.46 19.7388 9.164C19.5548 8.86 19.3028 8.632 18.9828 8.48C18.6708 8.32 18.3228 8.24 17.9388 8.24C17.3868 8.24 16.9148 8.416 16.5228 8.768C16.1388 9.12 15.9188 9.608 15.8628 10.232H20.0148ZM23.9162 8.324V12.2C23.9162 12.52 23.9842 12.748 24.1202 12.884C24.2562 13.012 24.4922 13.076 24.8282 13.076H25.6322V14H24.6482C24.0402 14 23.5842 13.86 23.2802 13.58C22.9762 13.3 22.8242 12.84 22.8242 12.2V8.324H21.9722V7.424H22.8242V5.768H23.9162V7.424H25.6322V8.324H23.9162ZM26.5473 10.688C26.5473 10.016 26.6833 9.428 26.9553 8.924C27.2273 8.412 27.5993 8.016 28.0713 7.736C28.5513 7.456 29.0833 7.316 29.6673 7.316C30.2433 7.316 30.7433 7.44 31.1673 7.688C31.5913 7.936 31.9073 8.248 32.1153 8.624V7.424H33.2193V14H32.1153V12.776C31.8993 13.16 31.5753 13.48 31.1433 13.736C30.7193 13.984 30.2233 14.108 29.6553 14.108C29.0713 14.108 28.5433 13.964 28.0713 13.676C27.5993 13.388 27.2273 12.984 26.9553 12.464C26.6833 11.944 26.5473 11.352 26.5473 10.688ZM32.1153 10.7C32.1153 10.204 32.0153 9.772 31.8153 9.404C31.6153 9.036 31.3433 8.756 30.9993 8.564C30.6633 8.364 30.2913 8.264 29.8833 8.264C29.4753 8.264 29.1033 8.36 28.7673 8.552C28.4313 8.744 28.1633 9.024 27.9633 9.392C27.7633 9.76 27.6633 10.192 27.6633 10.688C27.6633 11.192 27.7633 11.632 27.9633 12.008C28.1633 12.376 28.4313 12.66 28.7673 12.86C29.1033 13.052 29.4753 13.148 29.8833 13.148C30.2913 13.148 30.6633 13.052 30.9993 12.86C31.3433 12.66 31.6153 12.376 31.8153 12.008C32.0153 11.632 32.1153 11.196 32.1153 10.7Z" fill="white"/>
<defs>
<linearGradient id="paint0_linear_378_1922" x1="2.5" y1="3.52941" x2="38.9609" y2="13.569" gradientUnits="userSpaceOnUse">
<stop stop-color="#5279B3"/>
<stop offset="1" stop-color="#1F2E45"/>
</linearGradient>
</defs>
</svg>
