<svg width="41" height="41" viewBox="0 0 41 41" fill="none" xmlns="http://www.w3.org/2000/svg">
<path d="M39.6726 12.3768V33.0943C39.6726 36.7558 36.8232 39.7516 33.2208 39.9854L32.7667 40.0001H7.90582C4.24437 40.0001 1.2485 37.1507 1.01469 33.5483L1 33.0943V12.3768H39.6726ZM12.0493 26.1884C10.5237 26.1884 9.28698 27.4252 9.28698 28.9508C9.28698 30.4764 10.5237 31.7131 12.0493 31.7131C13.5749 31.7131 14.8116 30.4764 14.8116 28.9508C14.8116 27.4252 13.5749 26.1884 12.0493 26.1884ZM20.3363 26.1884C18.8107 26.1884 17.574 27.4252 17.574 28.9508C17.574 30.4764 18.8107 31.7131 20.3363 31.7131C21.8619 31.7131 23.0986 30.4764 23.0986 28.9508C23.0986 27.4252 21.8619 26.1884 20.3363 26.1884ZM12.0493 17.9015C10.5237 17.9015 9.28698 19.1382 9.28698 20.6638C9.28698 22.1894 10.5237 23.4261 12.0493 23.4261C13.5749 23.4261 14.8116 22.1894 14.8116 20.6638C14.8116 19.1382 13.5749 17.9015 12.0493 17.9015ZM20.3363 17.9015C18.8107 17.9015 17.574 19.1382 17.574 20.6638C17.574 22.1894 18.8107 23.4261 20.3363 23.4261C21.8619 23.4261 23.0986 22.1894 23.0986 20.6638C23.0986 19.1382 21.8619 17.9015 20.3363 17.9015ZM28.6233 17.9015C27.0977 17.9015 25.8609 19.1382 25.8609 20.6638C25.8609 22.1894 27.0977 23.4261 28.6233 23.4261C30.1489 23.4261 31.3856 22.1894 31.3856 20.6638C31.3856 19.1382 30.1489 17.9015 28.6233 17.9015ZM32.7667 1.32751C36.4282 1.32751 39.4241 4.17693 39.6579 7.77927L39.6726 8.23333V9.61449H1V8.23333C1 4.57191 3.84944 1.57602 7.45176 1.3422L7.90582 1.32751H32.7667Z" fill="#363636" fill-opacity="0.95"/>
</svg>
