<svg width="136" height="42" viewBox="0 0 136 42" fill="none" xmlns="http://www.w3.org/2000/svg">
<path d="M3.44331 15C3.44331 12.94 3.90331 11.1 4.82331 9.48C5.76331 7.84 7.03331 6.57 8.63331 5.67C10.2533 4.75 12.0633 4.29 14.0633 4.29C16.4033 4.29 18.4533 4.89 20.2133 6.09C21.9733 7.29 23.2033 8.95 23.9033 11.07H19.0733C18.5933 10.07 17.9133 9.32 17.0333 8.82C16.1733 8.32 15.1733 8.07 14.0333 8.07C12.8133 8.07 11.7233 8.36 10.7633 8.94C9.82331 9.5 9.08331 10.3 8.54331 11.34C8.02331 12.38 7.76331 13.6 7.76331 15C7.76331 16.38 8.02331 17.6 8.54331 18.66C9.08331 19.7 9.82331 20.51 10.7633 21.09C11.7233 21.65 12.8133 21.93 14.0333 21.93C15.1733 21.93 16.1733 21.68 17.0333 21.18C17.9133 20.66 18.5933 19.9 19.0733 18.9H23.9033C23.2033 21.04 21.9733 22.71 20.2133 23.91C18.4733 25.09 16.4233 25.68 14.0633 25.68C12.0633 25.68 10.2533 25.23 8.63331 24.33C7.03331 23.41 5.76331 22.14 4.82331 20.52C3.90331 18.9 3.44331 17.06 3.44331 15ZM36.8507 8.64C38.1107 8.64 39.2307 8.92 40.2107 9.48C41.1907 10.02 41.9507 10.83 42.4907 11.91C43.0507 12.97 43.3307 14.25 43.3307 15.75V25.5H39.1307V16.32C39.1307 15 38.8007 13.99 38.1407 13.29C37.4807 12.57 36.5807 12.21 35.4407 12.21C34.2807 12.21 33.3607 12.57 32.6807 13.29C32.0207 13.99 31.6907 15 31.6907 16.32V25.5H27.4907V3.3H31.6907V10.95C32.2307 10.23 32.9507 9.67 33.8507 9.27C34.7507 8.85 35.7507 8.64 36.8507 8.64ZM46.2446 17.13C46.2446 15.45 46.5746 13.96 47.2346 12.66C47.9146 11.36 48.8246 10.36 49.9646 9.66C51.1246 8.96 52.4146 8.61 53.8346 8.61C55.0746 8.61 56.1546 8.86 57.0746 9.36C58.0146 9.86 58.7646 10.49 59.3246 11.25V8.88H63.5546V25.5H59.3246V23.07C58.7846 23.85 58.0346 24.5 57.0746 25.02C56.1346 25.52 55.0446 25.77 53.8046 25.77C52.4046 25.77 51.1246 25.41 49.9646 24.69C48.8246 23.97 47.9146 22.96 47.2346 21.66C46.5746 20.34 46.2446 18.83 46.2446 17.13ZM59.3246 17.19C59.3246 16.17 59.1246 15.3 58.7246 14.58C58.3246 13.84 57.7846 13.28 57.1046 12.9C56.4246 12.5 55.6946 12.3 54.9146 12.3C54.1346 12.3 53.4146 12.49 52.7546 12.87C52.0946 13.25 51.5546 13.81 51.1346 14.55C50.7346 15.27 50.5346 16.13 50.5346 17.13C50.5346 18.13 50.7346 19.01 51.1346 19.77C51.5546 20.51 52.0946 21.08 52.7546 21.48C53.4346 21.88 54.1546 22.08 54.9146 22.08C55.6946 22.08 56.4246 21.89 57.1046 21.51C57.7846 21.11 58.3246 20.55 58.7246 19.83C59.1246 19.09 59.3246 18.21 59.3246 17.19ZM72.5467 12.33V20.37C72.5467 20.93 72.6767 21.34 72.9367 21.6C73.2167 21.84 73.6767 21.96 74.3167 21.96H76.2667V25.5H73.6267C70.0867 25.5 68.3167 23.78 68.3167 20.34V12.33H66.3367V8.88H68.3167V4.77H72.5467V8.88H76.2667V12.33H72.5467ZM99.276 21.51H90.936L89.556 25.5H85.146L92.676 4.53H97.566L105.096 25.5H100.656L99.276 21.51ZM98.136 18.15L95.106 9.39L92.076 18.15H98.136ZM112.111 4.56V25.5H107.911V4.56H112.111Z" fill="url(#paint0_linear_1028_492)"/>
<path d="M121.182 14.3565C121.067 14.2035 120.943 14.0577 120.81 13.92C120.316 13.4074 119.713 13.0212 119.048 12.7923L116.867 12.0598C116.699 11.9986 116.553 11.8849 116.45 11.7345C116.347 11.5842 116.292 11.4045 116.292 11.2203C116.292 11.0361 116.347 10.8564 116.45 10.7061C116.553 10.5557 116.699 10.442 116.867 10.3808L119.048 9.64827C119.703 9.41456 120.297 9.02744 120.784 8.5172C121.257 8.02095 121.615 7.42131 121.833 6.76283L121.851 6.70703L122.56 4.45321C122.62 4.2795 122.73 4.12908 122.875 4.02267C123.021 3.91627 123.195 3.85913 123.373 3.85913C123.551 3.85913 123.725 3.91627 123.871 4.02267C124.016 4.12908 124.126 4.2795 124.186 4.45321L124.895 6.70703C125.115 7.39224 125.487 8.01488 125.981 8.52545C126.476 9.03603 127.078 9.4205 127.742 9.64827L129.923 10.3808L129.967 10.392C130.135 10.4533 130.28 10.567 130.383 10.7173C130.486 10.8677 130.542 11.0474 130.542 11.2316C130.542 11.4158 130.486 11.5954 130.383 11.7458C130.28 11.8962 130.135 12.0098 129.967 12.0711L127.785 12.8036C127.122 13.0314 126.519 13.4158 126.025 13.9264C125.531 14.437 125.159 15.0596 124.938 15.7449L124.229 17.9987C124.223 18.0174 124.216 18.0359 124.208 18.054C124.146 18.2043 124.044 18.3343 123.915 18.4292C123.769 18.5356 123.595 18.5928 123.417 18.5928C123.238 18.5928 123.065 18.5356 122.919 18.4292C122.773 18.3228 122.663 18.1724 122.604 17.9987L121.895 15.7449C121.735 15.2422 121.493 14.7729 121.182 14.3565ZM133.365 20.5788L132.153 20.1719C131.784 20.0453 131.449 19.8317 131.175 19.5481C130.9 19.2644 130.694 18.9185 130.571 18.5378L130.177 17.2857C130.144 17.1892 130.083 17.1057 130.002 17.0465C129.922 16.9874 129.825 16.9557 129.726 16.9557C129.627 16.9557 129.53 16.9874 129.449 17.0465C129.368 17.1057 129.307 17.1892 129.274 17.2857L128.881 18.5378C128.76 18.9158 128.557 19.26 128.287 19.5435C128.017 19.827 127.687 20.042 127.323 20.1719L126.111 20.5788C126.018 20.6129 125.937 20.6759 125.88 20.7596C125.822 20.8431 125.792 20.9429 125.792 21.0452C125.792 21.1476 125.822 21.2474 125.88 21.3309C125.937 21.4144 126.018 21.4776 126.111 21.5116L127.323 21.9186C127.692 22.0458 128.027 22.2603 128.302 22.5451C128.577 22.8298 128.783 23.177 128.905 23.5588L129.299 24.811C129.332 24.9074 129.393 24.9911 129.474 25.0502C129.554 25.1093 129.651 25.141 129.75 25.141C129.849 25.141 129.946 25.1093 130.027 25.0502C130.107 24.9911 130.169 24.9074 130.201 24.811L130.595 23.5588C130.718 23.1782 130.925 22.8323 131.199 22.5486C131.474 22.265 131.809 22.0514 132.177 21.9248L133.389 21.5179C133.482 21.4838 133.563 21.4208 133.621 21.3371C133.678 21.2536 133.708 21.1538 133.708 21.0515C133.708 20.9491 133.678 20.8493 133.621 20.7658C133.563 20.6823 133.482 20.6191 133.389 20.5851L133.365 20.5788Z" fill="url(#paint1_linear_1028_492)"/>
<path d="M18.5117 37.5V31.8125H20.7734C21.5286 31.8125 22.1094 31.9792 22.5156 32.3125C22.9219 32.6458 23.125 33.0924 23.125 33.6523C23.125 34.2122 22.9219 34.6615 22.5156 35C22.1094 35.3385 21.5286 35.5078 20.7734 35.5078H19.8008V37.5H18.5117ZM19.8008 34.625H20.7734C21.1641 34.625 21.4375 34.5312 21.5938 34.3438C21.7526 34.1562 21.832 33.9258 21.832 33.6523C21.832 33.3815 21.7526 33.1549 21.5938 32.9727C21.4375 32.7878 21.1641 32.6953 20.7734 32.6953H19.8008V34.625ZM23.8359 34.8164V34.4961C23.8359 33.6159 24.0911 32.9297 24.6016 32.4375C25.1146 31.9427 25.7799 31.6953 26.5977 31.6953C27.418 31.6953 28.0846 31.9427 28.5977 32.4375C29.1133 32.9297 29.3711 33.6159 29.3711 34.4961V34.8164C29.3711 35.6966 29.1133 36.3841 28.5977 36.8789C28.0846 37.3711 27.418 37.6172 26.5977 37.6172C25.7799 37.6172 25.1146 37.3711 24.6016 36.8789C24.0911 36.3841 23.8359 35.6966 23.8359 34.8164ZM25.1602 34.8164C25.1602 35.4023 25.2891 35.8633 25.5469 36.1992C25.8047 36.5326 26.1562 36.6992 26.6016 36.6992C27.0469 36.6992 27.3984 36.5326 27.6562 36.1992C27.9167 35.8633 28.0469 35.4023 28.0469 34.8164V34.4961C28.0469 33.9102 27.9167 33.4505 27.6562 33.1172C27.3958 32.7812 27.043 32.6133 26.5977 32.6133C26.1549 32.6133 25.8047 32.7812 25.5469 33.1172C25.2891 33.4505 25.1602 33.9102 25.1602 34.4961V34.8164ZM31.2578 37.5156L30 31.8125H31.3047L32.0781 35.7539C32.0964 35.8477 32.112 35.9401 32.125 36.0312C32.1406 36.1198 32.151 36.2122 32.1562 36.3086H32.2031C32.2109 36.2122 32.2201 36.1198 32.2305 36.0312C32.2409 35.9401 32.2565 35.8477 32.2773 35.7539L33.1172 31.8125H34.6719L35.5273 35.7383C35.5508 35.8346 35.5664 35.9284 35.5742 36.0195C35.582 36.1107 35.5911 36.2018 35.6016 36.293H35.6484C35.6536 36.1992 35.6615 36.1081 35.6719 36.0195C35.6823 35.9284 35.6966 35.8346 35.7148 35.7383L36.4805 31.8125H37.5078L36.25 37.5156H34.7422L33.8711 33.5977C33.8503 33.5013 33.832 33.4089 33.8164 33.3203C33.8034 33.2292 33.7917 33.1367 33.7812 33.043H33.7344C33.724 33.1367 33.7109 33.2279 33.6953 33.3164C33.6823 33.4023 33.6654 33.4935 33.6445 33.5898L32.7656 37.5078L31.2578 37.5156ZM38.3477 37.5V31.8125H42.5273V32.6953H39.6367V34.125H42.1562V35.0078H39.6367V36.6172H42.5703V37.5H38.3477ZM43.4961 37.5V31.8125H45.7148C46.4622 31.8125 47.0391 31.9766 47.4453 32.3047C47.8542 32.6302 48.0586 33.0664 48.0586 33.6133C48.0586 34.1576 47.8542 34.5977 47.4453 34.9336C47.0391 35.2669 46.4622 35.4336 45.7148 35.4336H44.7852V37.5H43.4961ZM44.7852 34.5586H45.7148C46.1055 34.5586 46.3776 34.4661 46.5312 34.2812C46.6875 34.0964 46.7656 33.8737 46.7656 33.6133C46.7656 33.3503 46.6875 33.1315 46.5312 32.957C46.3776 32.7799 46.1055 32.6914 45.7148 32.6914H44.7852V34.5586ZM46.7148 37.5L45.4219 34.875L46.8633 34.8828L48.1914 37.5H46.7148ZM49.043 37.5V31.8125H53.2227V32.6953H50.332V34.125H52.8516V35.0078H50.332V36.6172H53.2656V37.5H49.043ZM54.1914 37.5V31.8125H56.4102C57.1576 31.8125 57.7344 31.9766 58.1406 32.3047C58.5495 32.6302 58.7539 33.0664 58.7539 33.6133C58.7539 34.1576 58.5495 34.5977 58.1406 34.9336C57.7344 35.2669 57.1576 35.4336 56.4102 35.4336H55.4805V37.5H54.1914ZM55.4805 34.5586H56.4102C56.8008 34.5586 57.0729 34.4661 57.2266 34.2812C57.3828 34.0964 57.4609 33.8737 57.4609 33.6133C57.4609 33.3503 57.3828 33.1315 57.2266 32.957C57.0729 32.7799 56.8008 32.6914 56.4102 32.6914H55.4805V34.5586ZM57.4102 37.5L56.1172 34.875L57.5586 34.8828L58.8867 37.5H57.4102ZM59.7383 37.5V31.8125H63.918V32.6953H61.0273V34.125H63.5469V35.0078H61.0273V36.6172H63.9609V37.5H59.7383ZM64.8867 37.5V31.8125H66.9648C67.8112 31.8125 68.5182 32.056 69.0859 32.543C69.6536 33.0273 69.9375 33.6784 69.9375 34.4961V34.8164C69.9375 35.6341 69.6536 36.2865 69.0859 36.7734C68.5182 37.2578 67.8112 37.5 66.9648 37.5H64.8867ZM66.1758 36.6172H66.9648C67.4622 36.6172 67.8607 36.4583 68.1602 36.1406C68.4596 35.8203 68.6094 35.3789 68.6094 34.8164V34.4961C68.6094 33.9336 68.4596 33.4935 68.1602 33.1758C67.8607 32.8555 67.4622 32.6953 66.9648 32.6953H66.1758V36.6172ZM72.9883 37.5V31.8125H75.2461C75.9518 31.8125 76.5065 31.9336 76.9102 32.1758C77.3164 32.418 77.5195 32.7995 77.5195 33.3203C77.5195 33.6328 77.4466 33.8893 77.3008 34.0898C77.1549 34.2878 76.9727 34.4245 76.7539 34.5V34.5156C77.0273 34.5938 77.2487 34.7461 77.418 34.9727C77.5872 35.1992 77.6719 35.4948 77.6719 35.8594C77.6719 36.3802 77.4609 36.7839 77.0391 37.0703C76.6172 37.3568 76.0599 37.5 75.3672 37.5H72.9883ZM74.2773 36.6641H75.3633C75.7174 36.6641 75.9753 36.5872 76.1367 36.4336C76.3008 36.2773 76.3828 36.0677 76.3828 35.8047C76.3828 35.5365 76.3008 35.3268 76.1367 35.1758C75.9727 35.0221 75.7161 34.9453 75.3672 34.9453H74.2773V36.6641ZM74.2773 34.1328H75.2461C75.5951 34.1328 75.8464 34.0677 76 33.9375C76.1536 33.8073 76.2305 33.6237 76.2305 33.3867C76.2305 33.1497 76.1523 32.9674 75.9961 32.8398C75.8424 32.7122 75.5911 32.6484 75.2422 32.6484H74.2773V34.1328ZM80.0273 37.5V35.543L78.125 31.8125H79.5781L80.5664 33.9258C80.6055 34.0039 80.6406 34.0833 80.6719 34.1641C80.7057 34.2448 80.7383 34.3255 80.7695 34.4062H80.8086C80.8398 34.3255 80.8711 34.2448 80.9023 34.1641C80.9362 34.0833 80.9714 34.0039 81.0078 33.9258L82 31.8125H83.1836L81.3125 35.5078V37.5H80.0273ZM85.625 34.8164V34.4961C85.625 33.6159 85.8802 32.9297 86.3906 32.4375C86.9036 31.9427 87.569 31.6953 88.3867 31.6953C89.207 31.6953 89.8737 31.9427 90.3867 32.4375C90.9023 32.9297 91.1602 33.6159 91.1602 34.4961V34.8164C91.1602 35.6966 90.9023 36.3841 90.3867 36.8789C89.8737 37.3711 89.207 37.6172 88.3867 37.6172C87.569 37.6172 86.9036 37.3711 86.3906 36.8789C85.8802 36.3841 85.625 35.6966 85.625 34.8164ZM86.9492 34.8164C86.9492 35.4023 87.0781 35.8633 87.3359 36.1992C87.5938 36.5326 87.9453 36.6992 88.3906 36.6992C88.8359 36.6992 89.1875 36.5326 89.4453 36.1992C89.7057 35.8633 89.8359 35.4023 89.8359 34.8164V34.4961C89.8359 33.9102 89.7057 33.4505 89.4453 33.1172C89.1849 32.7812 88.832 32.6133 88.3867 32.6133C87.944 32.6133 87.5938 32.7812 87.3359 33.1172C87.0781 33.4505 86.9492 33.9102 86.9492 34.4961V34.8164ZM92.2617 37.5V31.8125H94.5234C95.2786 31.8125 95.8594 31.9792 96.2656 32.3125C96.6719 32.6458 96.875 33.0924 96.875 33.6523C96.875 34.2122 96.6719 34.6615 96.2656 35C95.8594 35.3385 95.2786 35.5078 94.5234 35.5078H93.5508V37.5H92.2617ZM93.5508 34.625H94.5234C94.9141 34.625 95.1875 34.5312 95.3438 34.3438C95.5026 34.1562 95.582 33.9258 95.582 33.6523C95.582 33.3815 95.5026 33.1549 95.3438 32.9727C95.1875 32.7878 94.9141 32.6953 94.5234 32.6953H93.5508V34.625ZM97.8008 37.5V31.8125H101.98V32.6953H99.0898V34.125H101.609V35.0078H99.0898V36.6172H102.023V37.5H97.8008ZM102.949 37.5V31.8125H104.426L106.348 35.3672C106.389 35.4453 106.428 35.5352 106.465 35.6367C106.504 35.7357 106.538 35.8268 106.566 35.9102H106.598C106.59 35.8216 106.583 35.7096 106.578 35.5742C106.573 35.4362 106.57 35.3216 106.57 35.2305V31.8125H107.625V37.5H106.16L104.219 33.9766C104.172 33.8958 104.133 33.8151 104.102 33.7344C104.07 33.6536 104.042 33.5716 104.016 33.4883H103.98C103.988 33.5794 103.995 33.6745 104 33.7734C104.005 33.8698 104.008 33.9635 104.008 34.0547V37.5H102.949ZM110.219 37.5L112.129 31.793H113.602L115.531 37.5H114.145L112.914 33.5C112.883 33.4036 112.854 33.3112 112.828 33.2227C112.802 33.1341 112.779 33.043 112.758 32.9492H112.727C112.706 33.043 112.682 33.1341 112.656 33.2227C112.63 33.3112 112.602 33.4036 112.57 33.5L111.344 37.5H110.219ZM111.176 36.2305L111.5 35.3477H114.121L114.441 36.2305H111.176ZM116.18 37.5V31.8125H117.473V37.5H116.18Z" fill="#1E1E1E"/>
<defs>
<linearGradient id="paint0_linear_1028_492" x1="7.95132" y1="3.79412" x2="113.177" y2="20.523" gradientUnits="userSpaceOnUse">
<stop stop-color="#344394"/>
<stop offset="1" stop-color="#4583BC"/>
</linearGradient>
<linearGradient id="paint1_linear_1028_492" x1="113.473" y1="2.98886" x2="143.221" y2="25.0826" gradientUnits="userSpaceOnUse">
<stop stop-color="#E9D307"/>
<stop offset="1" stop-color="#BB6222"/>
</linearGradient>
</defs>
</svg>
