<svg width="40" height="41" viewBox="0 0 40 41" fill="none" xmlns="http://www.w3.org/2000/svg">
<path d="M22.061 2.14757C20.9045 1.05416 19.0955 1.05416 17.939 2.14757L3.40844 15.8856C2.5094 16.7356 2 17.9183 2 19.1555V35.8632C2 38.3484 4.01471 40.3632 6.5 40.3632H11C13.4853 40.3632 15.5 38.3484 15.5 35.8632V28.3632C15.5 27.5349 16.1716 26.8633 17 26.8633H23C23.8284 26.8633 24.5 27.5349 24.5 28.3632V35.8632C24.5 38.3484 26.5148 40.3632 29 40.3632H33.5C35.9852 40.3632 38 38.3484 38 35.8632V19.1555C38 17.9183 37.4906 16.7356 36.5915 15.8856L22.061 2.14757Z" fill="#363636"/>
</svg>
