<svg width="40" height="25" viewBox="0 0 40 25" fill="none" xmlns="http://www.w3.org/2000/svg">
<rect width="40" height="25" rx="5" fill="url(#paint0_linear_579_7)"/>
<path d="M8.17895 7.53V18H6.07895V7.53H8.17895ZM16.6738 16.005H12.5038L11.8138 18H9.60875L13.3738 7.515H15.8188L19.5838 18H17.3638L16.6738 16.005ZM16.1038 14.325L14.5888 9.945L13.0737 14.325H16.1038Z" fill="url(#paint1_linear_579_7)"/>
<path d="M29.0597 7.99536C26.8307 7.99536 25.0238 9.80232 25.0238 12.0313C25.0238 12.746 25.2098 13.418 25.5362 14.0008L25.0421 15.2937C24.86 15.7702 25.2983 16.2509 25.7896 16.1133L27.334 15.6807C27.8576 15.9287 28.4429 16.0673 29.0597 16.0673C31.2887 16.0673 33.0957 14.2603 33.0957 12.0313C33.0957 9.80232 31.2887 7.99536 29.0597 7.99536ZM29.0551 10.4176C28.8328 10.4611 28.5901 10.6053 28.3982 10.9429C28.3134 11.092 28.1239 11.1441 27.9748 11.0594C27.8258 10.9746 27.7736 10.7851 27.8584 10.636C28.1321 10.1546 28.5214 9.88928 28.936 9.80825C29.3414 9.72902 29.7444 9.83121 30.0488 10.0327C30.3491 10.2316 30.592 10.5562 30.5997 10.9459C30.6078 11.352 30.3602 11.7188 29.9048 11.9881C29.5952 12.1711 29.4748 12.2953 29.4236 12.3778C29.3805 12.4472 29.3701 12.5105 29.3701 12.6522C29.3701 12.8237 29.2311 12.9627 29.0597 12.9627C28.8882 12.9627 28.7492 12.8237 28.7492 12.6522C28.7492 12.4835 28.7578 12.273 28.8961 12.0503C29.0262 11.8407 29.2493 11.6543 29.5888 11.4536C29.9209 11.2572 29.9811 11.0699 29.9789 10.9582C29.9764 10.83 29.8908 10.6728 29.706 10.5505C29.5253 10.4308 29.2866 10.3724 29.0551 10.4176ZM29.2148 14.515C28.9576 14.515 28.7491 14.3065 28.7491 14.0493C28.7491 13.7921 28.9576 13.5836 29.2148 13.5836C29.472 13.5836 29.6805 13.7921 29.6805 14.0493C29.6805 14.3065 29.472 14.515 29.2148 14.515Z" fill="white"/>
<path d="M27.8403 16.5269C28.5804 17.3861 29.6763 17.9301 30.8993 17.9301C31.5162 17.9301 32.1015 17.7915 32.625 17.5435L34.1695 17.9761C34.6607 18.1137 35.0991 17.633 34.917 17.1566L34.4228 15.8636C34.7493 15.2808 34.9353 14.6088 34.9353 13.8941C34.9353 12.6893 34.4073 11.6078 33.5702 10.8683C33.6603 11.2188 33.7106 11.5854 33.7161 11.9627C34.0935 12.5121 34.3144 13.1773 34.3144 13.8941C34.3144 14.5466 34.1317 15.1554 33.8148 15.6734L33.7352 15.8036L34.337 17.3782L32.5611 16.8808L32.453 16.9362C31.9872 17.1746 31.4594 17.3092 30.8993 17.3092C30.1672 17.3092 29.4889 17.0788 28.9329 16.6866C28.5558 16.6765 28.1899 16.6216 27.8403 16.5269Z" fill="white"/>
<defs>
<linearGradient id="paint0_linear_579_7" x1="38" y1="23" x2="2" y2="1.5" gradientUnits="userSpaceOnUse">
<stop offset="0.00529159" stop-color="#1F2E45"/>
<stop offset="1" stop-color="#6D9FE9"/>
</linearGradient>
<linearGradient id="paint1_linear_579_7" x1="12.5" y1="0" x2="12.5" y2="25" gradientUnits="userSpaceOnUse">
<stop stop-color="white"/>
<stop offset="1" stop-color="white"/>
</linearGradient>
</defs>
</svg>
