<svg width="40" height="25" viewBox="0 0 40 25" fill="none" xmlns="http://www.w3.org/2000/svg">
<rect x="0.75" y="0.75" width="38.5" height="23.5" rx="4.25" fill="#FEFEFE" stroke="url(#paint0_linear_579_16)" stroke-width="1.5"/>
<path d="M28.0597 8C25.8307 8 24.0238 9.80696 24.0238 12.036C24.0238 12.7506 24.2098 13.4227 24.5362 14.0054L24.0421 15.2984C23.86 15.7749 24.2983 16.2555 24.7896 16.1179L26.334 15.6853C26.8576 15.9333 27.4429 16.0719 28.0597 16.0719C30.2887 16.0719 32.0957 14.265 32.0957 12.036C32.0957 9.80696 30.2887 8 28.0597 8ZM28.0551 10.4223C27.8328 10.4657 27.5901 10.6099 27.3982 10.9476C27.3134 11.0966 27.1239 11.1488 26.9748 11.064C26.8258 10.9793 26.7736 10.7897 26.8584 10.6407C27.1321 10.1592 27.5214 9.89392 27.936 9.81289C28.3414 9.73366 28.7444 9.83584 29.0488 10.0374C29.3491 10.2362 29.592 10.5608 29.5997 10.9505C29.6078 11.3567 29.3602 11.7235 28.9048 11.9927C28.5952 12.1758 28.4748 12.2999 28.4236 12.3824C28.3805 12.4518 28.3701 12.5151 28.3701 12.6569C28.3701 12.8283 28.2311 12.9673 28.0597 12.9673C27.8882 12.9673 27.7492 12.8283 27.7492 12.6569C27.7492 12.4882 27.7578 12.2777 27.8961 12.055C28.0262 11.8453 28.2493 11.659 28.5888 11.4583C28.9209 11.2618 28.9811 11.0746 28.9789 10.9628C28.9764 10.8347 28.8908 10.6774 28.706 10.5551C28.5253 10.4355 28.2866 10.377 28.0551 10.4223ZM28.2148 14.5196C27.9576 14.5196 27.7491 14.3111 27.7491 14.0539C27.7491 13.7968 27.9576 13.5882 28.2148 13.5882C28.472 13.5882 28.6805 13.7968 28.6805 14.0539C28.6805 14.3111 28.472 14.5196 28.2148 14.5196Z" fill="url(#paint1_linear_579_16)"/>
<path d="M26.8403 16.5316C27.5804 17.3907 28.6763 17.9347 29.8993 17.9347C30.5162 17.9347 31.1015 17.7961 31.625 17.5481L33.1695 17.9807C33.6607 18.1183 34.0991 17.6377 33.917 17.1612L33.4228 15.8683C33.7493 15.2855 33.9353 14.6134 33.9353 13.8988C33.9353 12.6939 33.4073 11.6124 32.5702 10.8729C32.6603 11.2235 32.7106 11.59 32.7161 11.9674C33.0935 12.5167 33.3144 13.1819 33.3144 13.8988C33.3144 14.5512 33.1317 15.16 32.8148 15.678L32.7352 15.8082L33.337 17.3828L31.5611 16.8854L31.453 16.9408C30.9872 17.1792 30.4594 17.3138 29.8993 17.3138C29.1672 17.3138 28.4889 17.0835 27.9329 16.6912C27.5558 16.6811 27.1899 16.6262 26.8403 16.5316Z" fill="url(#paint2_linear_579_16)"/>
<path d="M9.17895 7.53V18H7.07895V7.53H9.17895ZM17.6738 16.005H13.5038L12.8138 18H10.6088L14.3738 7.515H16.8188L20.5838 18H18.3638L17.6738 16.005ZM17.1038 14.325L15.5888 9.945L14.0737 14.325H17.1038Z" fill="url(#paint3_linear_579_16)"/>
<defs>
<linearGradient id="paint0_linear_579_16" x1="0.999999" y1="1" x2="38" y2="25" gradientUnits="userSpaceOnUse">
<stop stop-color="#6A90CA"/>
<stop offset="1" stop-color="#424D5E"/>
</linearGradient>
<linearGradient id="paint1_linear_579_16" x1="24.3036" y1="8.48851" x2="33.165" y2="11.6885" gradientUnits="userSpaceOnUse">
<stop stop-color="#7A7A7A"/>
<stop offset="1" stop-color="#587CB2"/>
</linearGradient>
<linearGradient id="paint2_linear_579_16" x1="27.1072" y1="11.3008" x2="34.8924" y2="14.1231" gradientUnits="userSpaceOnUse">
<stop stop-color="#7A7A7A"/>
<stop offset="1" stop-color="#587CB2"/>
</linearGradient>
<linearGradient id="paint3_linear_579_16" x1="4.7125" y1="1.5" x2="26.5576" y2="7.52953" gradientUnits="userSpaceOnUse">
<stop stop-color="#7A7A7A"/>
<stop offset="1" stop-color="#587CB2"/>
</linearGradient>
</defs>
</svg>
