<svg width="21" height="24" viewBox="0 0 21 24" fill="none" xmlns="http://www.w3.org/2000/svg">
<path d="M4.10526 4.42105C4.10526 1.97937 6.08463 0 8.52631 0C10.968 0 12.9474 1.97937 12.9474 4.42105V5.68421H14.2105C15.7801 5.68421 17.0526 6.95667 17.0526 8.52632V18C17.0526 19.5696 15.7801 20.8421 14.2105 20.8421H2.8421C1.27245 20.8421 0 19.5696 0 18V8.52632C0 6.95667 1.27245 5.68421 2.8421 5.68421H4.10526V4.42105ZM11.0526 4.42105C11.0526 3.02581 9.9216 1.89474 8.52631 1.89474C7.13107 1.89474 6 3.02581 6 4.42105V5.68421H11.0526V4.42105ZM8.52631 14.8421C9.3984 14.8421 10.1053 14.1352 10.1053 13.2632C10.1053 12.3911 9.3984 11.6842 8.52631 11.6842C7.65423 11.6842 6.94737 12.3911 6.94737 13.2632C6.94737 14.1352 7.65423 14.8421 8.52631 14.8421Z" fill="white"/>
<path d="M4.58252 22.1053C4.97268 23.2092 6.02544 24.0001 7.2629 24.0001H14.8418C17.8067 24.0001 20.2103 21.5965 20.2103 18.6317V12.9474C20.2103 11.7101 19.4194 10.6572 18.3155 10.2672V18.6317C18.3155 20.5501 16.7603 22.1053 14.8418 22.1053H4.58252Z" fill="white"/>
</svg>
