<svg width="50" height="50" viewBox="0 0 50 50" fill="none" xmlns="http://www.w3.org/2000/svg">
<rect width="50" height="50" rx="25" fill="#165892"/>
<path d="M19.1053 17.4211C19.1053 14.9794 21.0846 13 23.5263 13C25.968 13 27.9474 14.9794 27.9474 17.4211V18.6842H29.2105C30.7801 18.6842 32.0526 19.9567 32.0526 21.5263V31C32.0526 32.5696 30.7801 33.8421 29.2105 33.8421H17.8421C16.2725 33.8421 15 32.5696 15 31V21.5263C15 19.9567 16.2725 18.6842 17.8421 18.6842H19.1053V17.4211ZM26.0526 17.4211C26.0526 16.0258 24.9216 14.8947 23.5263 14.8947C22.1311 14.8947 21 16.0258 21 17.4211V18.6842H26.0526V17.4211ZM23.5263 27.8421C24.3984 27.8421 25.1053 27.1352 25.1053 26.2632C25.1053 25.3911 24.3984 24.6842 23.5263 24.6842C22.6542 24.6842 21.9474 25.3911 21.9474 26.2632C21.9474 27.1352 22.6542 27.8421 23.5263 27.8421Z" fill="white"/>
<path d="M19.5825 35.1053C19.9727 36.2092 21.0254 37.0001 22.2629 37.0001H29.8418C32.8067 37.0001 35.2103 34.5965 35.2103 31.6317V25.9474C35.2103 24.7101 34.4194 23.6572 33.3155 23.2672V31.6317C33.3155 33.5501 31.7603 35.1053 29.8418 35.1053H19.5825Z" fill="white"/>
</svg>
