<svg width="17" height="23" viewBox="0 0 17 23" fill="none" xmlns="http://www.w3.org/2000/svg">
<path fill-rule="evenodd" clip-rule="evenodd" d="M6.65159 0.190859C4.82756 0.631302 3.35028 1.50791 2.09753 2.89313C-1.2627 6.60836 -0.621371 11.14 4.27974 18.3152C6.36581 21.3686 7.82843 23 8.4806 23C9.17146 23 10.5048 21.5047 12.6697 18.3015C17.6975 10.8627 18.2775 6.58155 14.7716 2.78701C12.7685 0.618465 9.374 -0.466951 6.65159 0.190859ZM9.75329 5.63249C11.5184 6.51109 12.0114 8.8876 10.7115 10.2529C8.79335 12.2668 5.54861 11.0604 5.56356 8.33875C5.57617 6.09176 7.7956 4.65804 9.75329 5.63249Z" fill="#282828"/>
</svg>
