<svg width="18" height="24" viewBox="0 0 18 24" fill="none" xmlns="http://www.w3.org/2000/svg">
<path d="M4.5 0.75C4.5 0.33579 4.16421 0 3.75 0C3.33579 0 3 0.33579 3 0.75V1.5H2.25C1.00735 1.5 0 2.50735 0 3.75V21.75C0 22.9926 1.00735 24 2.25 24H10.5V18.75C10.5 17.5074 11.5074 16.5 12.75 16.5H18V3.75C18 2.50735 16.9926 1.5 15.75 1.5H15V0.75C15 0.33579 14.6642 0 14.25 0C13.8358 0 13.5 0.33579 13.5 0.75V1.5H9.75V0.75C9.75 0.33579 9.41415 0 9 0C8.58579 0 8.25 0.33579 8.25 0.75V1.5H4.5V0.75ZM4.5 8.25C4.5 7.83579 4.83579 7.5 5.25 7.5H12.75C13.1642 7.5 13.5 7.83579 13.5 8.25C13.5 8.66421 13.1642 9 12.75 9H5.25C4.83579 9 4.5 8.66421 4.5 8.25ZM5.25 12H12.75C13.1642 12 13.5 12.3358 13.5 12.75C13.5 13.1642 13.1642 13.5 12.75 13.5H5.25C4.83579 13.5 4.5 13.1642 4.5 12.75C4.5 12.3358 4.83579 12 5.25 12ZM4.5 17.25C4.5 16.8358 4.83579 16.5 5.25 16.5H8.25C8.66421 16.5 9 16.8358 9 17.25C9 17.6642 8.66421 18 8.25 18H5.25C4.83579 18 4.5 17.6642 4.5 17.25Z" fill="white"/>
<path d="M17.534 18H12.7502C12.3361 18 12.0002 18.3359 12.0002 18.75V23.5338C12.0772 23.4747 12.1505 23.4103 12.2198 23.341L17.3413 18.2196C17.4106 18.1503 17.4749 18.077 17.534 18Z" fill="white"/>
</svg>
