<svg width="23" height="26" viewBox="0 0 23 26" fill="none" xmlns="http://www.w3.org/2000/svg">
<path d="M6.43884 0.919816C6.43884 0.41182 6.85066 0 7.35866 0H14.7172C15.2252 0 15.637 0.41182 15.637 0.919816C15.637 1.42781 15.2252 1.83963 14.7172 1.83963H7.35866C6.85066 1.83963 6.43884 1.42781 6.43884 0.919816Z" fill="#282828"/>
<path d="M11.0378 25.7549C17.1338 25.7549 22.0756 20.8131 22.0756 14.7171C22.0756 8.62111 17.1338 3.67932 11.0378 3.67932C4.94178 3.67932 0 8.62111 0 14.7171C0 20.8131 4.94178 25.7549 11.0378 25.7549ZM11.0378 7.35858C11.5458 7.35858 11.9576 7.7704 11.9576 8.2784V15.6369C11.9576 16.1449 11.5458 16.5567 11.0378 16.5567C10.5298 16.5567 10.118 16.1449 10.118 15.6369V8.2784C10.118 7.7704 10.5298 7.35858 11.0378 7.35858Z" fill="#282828"/>
<path d="M20.1499 3.02044C19.7906 2.66124 19.2081 2.66124 18.849 3.02044C18.4898 3.37967 18.4898 3.96206 18.849 4.32126L21.4299 6.90208C21.789 7.26129 22.3714 7.26129 22.7307 6.90208C23.0898 6.54288 23.0898 5.96049 22.7307 5.60126L20.1499 3.02044Z" fill="#282828"/>
</svg>
