<svg width="25" height="25" viewBox="0 0 25 25" fill="none" xmlns="http://www.w3.org/2000/svg">
<path d="M11.362 2.27271C12.4493 2.27271 13.501 2.42544 14.4966 2.71062C14.3655 2.79209 14.2248 2.8584 14.0775 2.90787L12.555 3.4078C12.2057 3.53241 11.9012 3.75778 11.6801 4.05543C11.4738 4.35661 11.3629 4.71294 11.362 5.07801C11.3631 5.43953 11.474 5.79217 11.6801 6.08922C11.868 6.41286 12.1547 6.66771 12.4982 6.81639L14.0888 7.33904C14.3953 7.44295 14.6747 7.61372 14.9069 7.83896L15.1114 7.95258C15.2543 8.14171 15.3656 8.35275 15.4409 8.57749L15.9067 10.225C16.0268 10.5766 16.2532 10.8823 16.5544 11.0998C16.8514 11.3059 17.2041 11.4168 17.5656 11.4179C17.8341 11.4212 18.0994 11.3589 18.3382 11.2362C18.2032 11.4629 18.1325 11.7222 18.1337 11.986C18.1312 12.292 18.2267 12.5906 18.4064 12.8382C18.5829 13.0895 18.833 13.2801 19.1222 13.3836L20.0198 13.6676C20.1118 13.7054 20.1964 13.7593 20.2697 13.8267C20.3422 13.9004 20.3966 13.9898 20.4288 14.088L20.7015 14.9515C20.8067 15.2492 21.0011 15.507 21.2582 15.69C21.5068 15.8677 21.8047 15.9633 22.1104 15.9633C22.2413 15.9633 22.3708 15.9457 22.4957 15.9117C21.4412 21.0955 16.8572 24.9966 11.362 24.9966C9.49814 24.9966 7.69791 24.5466 6.08522 23.6994L1.21048 24.9686C0.694329 25.1031 0.166907 24.7936 0.0324724 24.2774C-0.00910098 24.1179 -0.0091124 23.9503 0.0324383 23.7907L1.30083 18.9182C0.451297 17.3039 0 15.5012 0 13.6347C0 7.35962 5.08692 2.27271 11.362 2.27271Z" fill="url(#paint0_linear_1000_408)"/>
<path d="M16.0084 7.28561C15.9262 7.17946 15.8373 7.07827 15.7421 6.98271C15.3873 6.62692 14.9543 6.3589 14.4776 6.20003L12.9121 5.69165C12.7915 5.64912 12.6869 5.57023 12.6131 5.46587C12.5391 5.36152 12.4995 5.23682 12.4995 5.10897C12.4995 4.98113 12.5391 4.85643 12.6131 4.75207C12.6869 4.6477 12.7915 4.56883 12.9121 4.52629L14.4776 4.01791C14.9476 3.8557 15.3739 3.58703 15.7229 3.2329C16.0622 2.88848 16.3197 2.47231 16.4762 2.01529L16.4891 1.97656L16.9979 0.412319C17.0405 0.291755 17.1195 0.187353 17.2239 0.113505C17.3283 0.0396572 17.4531 0 17.581 0C17.709 0 17.8338 0.0396572 17.9382 0.113505C18.0426 0.187353 18.1216 0.291755 18.1642 0.412319L18.673 1.97656C18.8312 2.45213 19.0982 2.88427 19.4528 3.23862C19.8075 3.59299 20.2399 3.85983 20.7159 4.01791L22.2813 4.52629L22.3126 4.53411C22.4332 4.57664 22.5378 4.65553 22.6116 4.75989C22.6856 4.86425 22.7252 4.98895 22.7252 5.11679C22.7252 5.24463 22.6856 5.36933 22.6116 5.47369C22.5378 5.57806 22.4332 5.65694 22.3126 5.69948L20.7471 6.20786C20.2713 6.36593 19.8387 6.63277 19.4841 6.98714C19.1295 7.3415 18.8625 7.77364 18.7042 8.2492L18.1955 9.81345C18.1909 9.82645 18.1859 9.83926 18.1805 9.85187C18.1356 9.95618 18.0627 10.0464 17.9696 10.1123C17.865 10.1861 17.7403 10.2258 17.6124 10.2258C17.4844 10.2258 17.3597 10.1861 17.2551 10.1123C17.1507 10.0384 17.0718 9.93401 17.0293 9.81345L16.5205 8.2492C16.4055 7.90032 16.232 7.57461 16.0084 7.28561ZM24.751 11.6042L23.8813 11.3217C23.6169 11.2339 23.3766 11.0857 23.1796 10.8888C22.9826 10.6919 22.8342 10.4519 22.7464 10.1877L22.4637 9.31863C22.4401 9.25166 22.3962 9.19365 22.3381 9.15263C22.2802 9.1116 22.2109 9.08957 22.1398 9.08957C22.0686 9.08957 21.9993 9.1116 21.9413 9.15263C21.8833 9.19365 21.8395 9.25166 21.8158 9.31863L21.5331 10.1877C21.447 10.45 21.3012 10.6889 21.1074 10.8856C20.9136 11.0824 20.6768 11.2316 20.4156 11.3217L19.5459 11.6042C19.4789 11.6278 19.4208 11.6716 19.3797 11.7296C19.3387 11.7876 19.3167 11.8569 19.3167 11.9279C19.3167 11.9989 19.3387 12.0682 19.3797 12.1262C19.4208 12.1841 19.4789 12.228 19.5459 12.2516L20.4156 12.5341C20.6804 12.6223 20.921 12.7712 21.1181 12.9689C21.3151 13.1665 21.4633 13.4075 21.5505 13.6724L21.8332 14.5415C21.8568 14.6084 21.9007 14.6665 21.9588 14.7075C22.0167 14.7485 22.086 14.7705 22.1571 14.7705C22.2283 14.7705 22.2976 14.7485 22.3555 14.7075C22.4136 14.6665 22.4574 14.6084 22.4811 14.5415L22.7638 13.6724C22.8517 13.4082 23 13.1682 23.197 12.9713C23.394 12.7745 23.6343 12.6262 23.8987 12.5384L24.7683 12.2559C24.8354 12.2323 24.8934 12.1885 24.9346 12.1305C24.9756 12.0725 24.9976 12.0032 24.9976 11.9322C24.9976 11.8612 24.9756 11.7919 24.9346 11.7339C24.8934 11.676 24.8354 11.6321 24.7683 11.6085L24.751 11.6042Z" fill="url(#paint1_linear_1000_408)"/>
<defs>
<linearGradient id="paint0_linear_1000_408" x1="1.26311" y1="4.94651" x2="25.2952" y2="5.99703" gradientUnits="userSpaceOnUse">
<stop stop-color="#344394"/>
<stop offset="1" stop-color="#4583BC"/>
</linearGradient>
<linearGradient id="paint1_linear_1000_408" x1="10.477" y1="-0.604005" x2="31.3123" y2="15.3958" gradientUnits="userSpaceOnUse">
<stop stop-color="#E9D307"/>
<stop offset="1" stop-color="#BB6222"/>
</linearGradient>
</defs>
</svg>
