<svg width="20" height="20" viewBox="0 0 20 20" fill="none" xmlns="http://www.w3.org/2000/svg">
<path d="M7.7193 0C11.9825 0 15.4386 3.45605 15.4386 7.7193C15.4386 9.47133 14.8549 11.087 13.8714 12.3826L19.6917 18.203C20.1028 18.6141 20.1028 19.2806 19.6917 19.6917C19.318 20.0654 18.7332 20.0994 18.3211 19.7936L18.203 19.6917L12.3826 13.8714C11.087 14.8549 9.47133 15.4386 7.7193 15.4386C3.45605 15.4386 0 11.9825 0 7.7193C0 3.45605 3.45605 0 7.7193 0ZM7.7193 2.10526C4.61875 2.10526 2.10526 4.61875 2.10526 7.7193C2.10526 10.8198 4.61875 13.3333 7.7193 13.3333C10.8198 13.3333 13.3333 10.8198 13.3333 7.7193C13.3333 4.61875 10.8198 2.10526 7.7193 2.10526Z" fill="#888888"/>
</svg>
