<svg width="50" height="50" viewBox="0 0 50 50" fill="none" xmlns="http://www.w3.org/2000/svg">
<rect width="50" height="50" rx="25" fill="#165892"/>
<path d="M20.5 13.75C20.5 13.3358 20.1642 13 19.75 13C19.3358 13 19 13.3358 19 13.75V14.5H18.25C17.0074 14.5 16 15.5074 16 16.75V34.75C16 35.9926 17.0074 37 18.25 37H26.5V31.75C26.5 30.5074 27.5074 29.5 28.75 29.5H34V16.75C34 15.5074 32.9926 14.5 31.75 14.5H31V13.75C31 13.3358 30.6642 13 30.25 13C29.8358 13 29.5 13.3358 29.5 13.75V14.5H25.75V13.75C25.75 13.3358 25.4142 13 25 13C24.5858 13 24.25 13.3358 24.25 13.75V14.5H20.5V13.75ZM20.5 21.25C20.5 20.8358 20.8358 20.5 21.25 20.5H28.75C29.1642 20.5 29.5 20.8358 29.5 21.25C29.5 21.6642 29.1642 22 28.75 22H21.25C20.8358 22 20.5 21.6642 20.5 21.25ZM21.25 25H28.75C29.1642 25 29.5 25.3358 29.5 25.75C29.5 26.1642 29.1642 26.5 28.75 26.5H21.25C20.8358 26.5 20.5 26.1642 20.5 25.75C20.5 25.3358 20.8358 25 21.25 25ZM20.5 30.25C20.5 29.8358 20.8358 29.5 21.25 29.5H24.25C24.6642 29.5 25 29.8358 25 30.25C25 30.6642 24.6642 31 24.25 31H21.25C20.8358 31 20.5 30.6642 20.5 30.25Z" fill="white"/>
<path d="M33.534 31H28.7502C28.3361 31 28.0002 31.3359 28.0002 31.75V36.5338C28.0772 36.4747 28.1505 36.4103 28.2198 36.341L33.3413 31.2196C33.4106 31.1503 33.4749 31.077 33.534 31Z" fill="white"/>
</svg>
