<svg width="40" height="41" viewBox="0 0 40 41" fill="none" xmlns="http://www.w3.org/2000/svg">
<path d="M29.6589 20.7376C32.9292 20.7376 35.5802 23.3887 35.5802 26.6589C35.5802 31.0647 33.7684 34.5945 30.7952 36.9809C27.869 39.3297 23.9472 40.4752 19.7901 40.4752C15.633 40.4752 11.7112 39.3297 8.78499 36.9809C5.8118 34.5945 4 31.0647 4 26.6589C4 23.5812 6.34829 21.0517 9.35095 20.7647L9.92121 20.7376H29.6589ZM19.7901 1C24.1504 1 27.6851 4.53473 27.6851 8.89505C27.6851 13.2554 24.1504 16.7901 19.7901 16.7901C15.4298 16.7901 11.895 13.2554 11.895 8.89505C11.895 4.53473 15.4298 1 19.7901 1Z" fill="#363636" fill-opacity="0.95"/>
</svg>
