<svg width="430" height="238" viewBox="0 0 430 238" fill="none" xmlns="http://www.w3.org/2000/svg">
<path d="M202.66 173.395C203.494 172.914 204.56 173.199 205.041 174.033C205.523 174.867 205.237 175.934 204.403 176.415L200.927 178.419L205.847 179.737C206.559 179.928 207.074 180.546 207.133 181.28L207.834 189.892C207.932 191.094 206.81 192.03 205.645 191.718L203.299 191.089L193.688 212.7C192.336 215.865 188.937 217.326 185.544 216.417L179.265 214.734C175.872 213.825 173.659 210.86 174.068 207.47L176.552 183.922L174.207 183.294C173.042 182.982 172.538 181.61 173.224 180.618L178.137 173.511C178.556 172.904 179.311 172.627 180.022 172.818L196.165 177.143L202.66 173.395ZM203.757 182.788L180.307 176.504L177.499 180.566L204.158 187.709L203.757 182.788Z" fill="#282828" fill-opacity="0.37"/>
<path d="M-11.8135 169.5C-14.4186 166.559 -14.1701 161.995 -10.8 159.974C-6.58283 157.446 -1.90091 155.738 2.99933 154.965C10.2544 153.821 17.6853 154.777 24.4151 157.718C31.145 160.66 36.893 165.465 40.981 171.567C45.0689 177.669 47.3261 184.813 47.4863 192.156C47.6465 199.499 45.703 206.734 41.8851 213.009C38.0671 219.283 32.5341 224.334 25.939 227.567C19.3438 230.799 11.9616 232.077 4.66358 231.251C-0.265697 230.693 -5.01766 229.19 -9.34111 226.848C-12.7961 224.977 -13.2434 220.428 -10.769 217.376V217.376C-8.2946 214.324 -3.82587 213.975 -0.188787 215.462C1.86596 216.302 4.03655 216.86 6.2646 217.112C10.8654 217.633 15.5192 216.827 19.6768 214.79C23.8345 212.752 27.3226 209.567 29.7295 205.612C32.1363 201.657 33.3616 197.095 33.2606 192.466C33.1596 187.837 31.7366 183.333 29.1595 179.487C26.5824 175.64 22.9588 172.611 18.7162 170.756C14.4736 168.902 9.78911 168.3 5.21543 169.021C3.00051 169.37 0.856339 170.023 -1.15982 170.951C-4.7286 172.595 -9.2083 172.442 -11.8135 169.5V169.5Z" fill="#282828" fill-opacity="0.37"/>
<path d="M452.773 160.468C456.483 161.761 458.496 165.864 456.543 169.274C454.594 172.677 452.129 175.774 449.224 178.451C444.568 182.741 438.925 185.816 432.796 187.405C426.668 188.993 420.242 189.046 414.088 187.558C407.934 186.07 402.242 183.087 397.516 178.874C392.79 174.66 389.176 169.346 386.994 163.403C384.813 157.459 384.13 151.069 385.008 144.799C385.886 138.529 388.296 132.572 392.026 127.456C394.353 124.264 397.148 121.461 400.306 119.136C403.47 116.806 407.777 118.337 409.486 121.875V121.875C411.195 125.413 409.609 129.606 406.715 132.264C405.541 133.343 404.471 134.54 403.524 135.838C401.173 139.064 399.653 142.819 399.1 146.772C398.547 150.725 398.977 154.753 400.352 158.5C401.727 162.247 404.006 165.597 406.985 168.253C409.964 170.909 413.552 172.789 417.432 173.727C421.311 174.665 425.363 174.632 429.226 173.631C433.09 172.629 436.647 170.691 439.582 167.986C440.764 166.897 441.83 165.698 442.768 164.407C445.079 161.229 449.062 159.174 452.773 160.468V160.468Z" fill="#282828" fill-opacity="0.37"/>
<path d="M70.5 44.4999V59.5H85.5C86.8807 59.5 88.0187 60.6255 87.8237 61.9925C86.614 70.4767 79.3187 77 70.5 77C60.835 77 53 69.165 53 59.5C53 50.6812 59.5231 43.386 68.0074 42.1761C69.3743 41.9812 70.5 43.1192 70.5 44.4999ZM75.5 37C84.9636 37 92.6727 44.512 92.9899 53.8984L93 54.5L92.9967 54.8405C92.9748 55.9886 92.058 56.8572 90.9387 56.984L90.655 57H75.5C74.2179 57 73.1612 56.0349 73.0168 54.7916L73 54.5V39.3451C73 38.1011 73.9158 37.027 75.1595 37.0033L75.5 37Z" fill="#282828" fill-opacity="0.37"/>
<path d="M143.566 48.9693C144.567 45.235 148.405 43.019 152.14 44.0196L183.693 52.4743C187.427 53.4749 189.643 57.3133 188.643 61.0475L183.812 79.0781C182.811 82.8123 178.972 85.0285 175.238 84.0279L143.685 75.5731C139.951 74.5725 137.734 70.7341 138.735 66.9999L143.566 48.9693Z" fill="#282828" fill-opacity="0.37"/>
<path d="M133.462 77.6652C132.217 77.3317 130.937 78.0705 130.604 79.3151C130.27 80.5597 131.009 81.8393 132.254 82.1728L181.838 95.4589C183.083 95.7924 184.362 95.0535 184.696 93.809C185.029 92.5644 184.29 91.2847 183.046 90.9512L133.462 77.6652Z" fill="#282828" fill-opacity="0.37"/>
<path d="M368 45.898L367.699 45.7244L370.499 40.8746C372.819 36.8569 377.956 35.4804 381.974 37.8L386.824 40.6C390.842 42.9196 392.218 48.0569 389.898 52.0746L387.098 56.9244L386.798 56.7508C390.851 63.5032 391.215 72.1947 386.998 79.4985L379.998 91.6228C377.678 95.6403 372.541 97.017 368.523 94.6974L344.275 80.6974C340.257 78.3778 338.88 73.2403 341.2 69.2228L348.2 57.0985C352.417 49.7947 360.126 45.764 368 45.898ZM375.349 43.6746L373.596 46.7106C375.377 47.2066 377.124 47.9326 378.799 48.8995C380.474 49.8663 381.976 51.0167 383.296 52.3106L385.049 49.2746C385.822 47.9354 385.363 46.2229 384.024 45.4497L379.174 42.6497C377.835 41.8765 376.122 42.3354 375.349 43.6746ZM366.949 58.2238C366.176 59.563 366.635 61.2755 367.974 62.0487L372.824 64.8487C374.163 65.6219 375.876 65.163 376.649 63.8238C377.422 62.4846 376.963 60.7722 375.624 59.999L370.774 57.199C369.435 56.4258 367.722 56.8846 366.949 58.2238ZM357.524 68.9482C356.185 68.175 354.473 68.6339 353.699 69.9731C352.926 71.3123 353.385 73.0247 354.724 73.7979L369.274 82.1979C370.613 82.9711 372.325 82.5123 373.098 81.1731C373.872 79.8339 373.413 78.1214 372.074 77.3482L357.524 68.9482Z" fill="#282828" fill-opacity="0.37"/>
<path d="M243.433 146.484C240.374 145.664 237.23 147.48 236.41 150.539L233.442 161.616C230.436 172.833 237.093 184.362 248.309 187.367C257.605 189.858 267.116 185.712 271.811 177.834L274.422 178.534C279.52 179.9 284.761 176.874 286.127 171.776C287.493 166.677 284.467 161.437 279.369 160.071L277.207 159.492C277.024 157.137 275.385 155.046 272.973 154.399L243.433 146.484ZM276.533 163.269L278.38 163.763C281.439 164.583 283.254 167.727 282.434 170.786C281.615 173.845 278.47 175.661 275.411 174.841L273.482 174.324C273.7 173.731 273.893 173.122 274.06 172.5L276.533 163.269Z" fill="#282828" fill-opacity="0.37"/>
<path d="M56.3924 114.819L76.3158 111.179C81.5216 110.229 86.897 111.156 91.4446 113.805L94.0541 115.324L95.9578 112.98C99.2755 108.895 103.976 106.127 109.182 105.176L129.126 101.533C130.671 101.251 132.153 102.274 132.435 103.818L132.946 106.615L135.743 106.104C137.288 105.822 138.769 106.845 139.051 108.39L152.282 180.82C152.564 182.365 151.54 183.845 149.995 184.127L66.071 199.457C64.5261 199.739 63.0449 198.716 62.7628 197.172L49.5325 124.741C49.2503 123.197 50.2741 121.716 51.8191 121.434L54.6166 120.923L54.1057 118.126C53.8236 116.582 54.8474 115.101 56.3924 114.819ZM127.351 107.637L110.203 110.769C106.319 111.479 102.827 113.543 100.373 116.564L97.7682 119.771L107.306 171.985C107.588 173.529 106.564 175.01 105.019 175.292C103.474 175.575 101.993 174.551 101.711 173.007L92.1766 120.811L88.5814 118.718C85.218 116.759 81.2222 116.063 77.3375 116.772L60.2115 119.901L72.072 184.832L89.7403 181.605C94.5869 180.719 99.5824 181.514 103.925 183.842L104.915 184.407L106.887 185.598L108.318 183.785C111.375 179.89 115.639 177.165 120.412 176.032L121.522 175.799L139.211 172.568L127.351 107.637Z" fill="#282828" fill-opacity="0.37"/>
<path d="M274.221 79.4097C276.397 76.9781 279.806 76.0649 282.906 77.0829L303.066 83.7035C303.589 83.875 303.991 84.2965 304.137 84.8264C304.284 85.3564 304.156 85.9244 303.796 86.34L289.821 102.47C287.622 105.008 284.099 105.952 280.926 104.854L263.683 98.8847L266.369 108.907C266.603 109.783 266.083 110.684 265.207 110.919C264.33 111.154 263.43 110.633 263.195 109.757L259.793 97.0621C259.779 97.0083 259.767 96.9545 259.758 96.9008C259.738 96.8459 259.72 96.7896 259.705 96.732C259.567 96.1998 259.704 95.6338 260.071 95.2241L274.221 79.4097Z" fill="#282828" fill-opacity="0.37"/>
<path d="M270.393 111.23L268.46 104.015L279.851 107.958C284.294 109.496 289.226 108.175 292.305 104.621L300.197 95.5113L302.13 102.726C302.231 103.103 302.195 103.502 302.028 103.855C302.028 103.855 302.028 103.855 300.543 103.151L302.028 103.855L302.025 103.861L302.021 103.87L302.008 103.896L301.965 103.982C301.929 104.053 301.878 104.152 301.811 104.275C301.677 104.522 301.48 104.867 301.216 105.284C300.69 106.116 299.895 107.243 298.803 108.448C296.623 110.855 293.219 113.618 288.388 114.912C283.557 116.207 279.228 115.516 276.136 114.522C274.588 114.024 273.335 113.446 272.463 112.988C272.027 112.759 271.684 112.558 271.444 112.412C271.325 112.339 271.231 112.279 271.164 112.235L271.084 112.182L271.06 112.166L271.052 112.16L271.048 112.158L271.98 110.805C271.046 112.157 271.048 112.158 271.048 112.158C270.728 111.936 270.494 111.607 270.393 111.23Z" fill="#282828" fill-opacity="0.37"/>
<path d="M334.2 124.977C330.124 123.885 325.934 126.304 324.842 130.38L312.977 174.66C311.885 178.735 314.304 182.925 318.38 184.017L353.435 193.41C354.453 193.683 355.501 193.078 355.774 192.059C356.047 191.04 355.442 189.993 354.423 189.72L319.369 180.327C317.331 179.781 316.121 177.686 316.667 175.648L353.567 185.536C355.605 186.082 357.7 184.872 358.246 182.834L369.122 142.245C370.214 138.169 367.795 133.979 363.719 132.887L334.2 124.977ZM334.495 134.944L358.48 141.371C360.008 141.78 360.915 143.351 360.506 144.88C360.096 146.408 358.525 147.315 356.997 146.906L333.012 140.479C331.484 140.069 330.577 138.498 330.986 136.97C331.396 135.441 332.967 134.534 334.495 134.944Z" fill="#282828" fill-opacity="0.37"/>
<path d="M226.702 4.66301C228.027 3.15335 230.508 3.81808 230.901 5.78787L232.387 13.2504L239.378 16.2563C241.223 17.0497 241.357 19.6145 239.605 20.5964L232.967 24.3165L232.269 31.8935C232.084 33.8934 229.687 34.8139 228.211 33.4512L222.622 28.2876L215.2 29.9648C213.241 30.4073 211.625 28.4113 212.465 26.5871L215.648 19.6759L211.76 13.1353C210.733 11.4088 212.132 9.25486 214.127 9.49035L221.684 10.3824L226.702 4.66301Z" fill="#282828" fill-opacity="0.37"/>
</svg>
