<svg width="34" height="30" viewBox="0 0 34 30" fill="none" xmlns="http://www.w3.org/2000/svg">
<rect x="14.3927" y="0.833252" width="8.5" height="8.5" rx="3" fill="white" fill-opacity="0.66"/>
<rect x="14.3927" y="10.75" width="8.5" height="8.5" rx="3" fill="white" fill-opacity="0.79"/>
<rect x="13.9368" y="20.6667" width="8.5" height="8.5" rx="3" fill="white" fill-opacity="0.28"/>
<rect x="24.7816" y="0.833252" width="8.5" height="8.5" rx="3" fill="white" fill-opacity="0.91"/>
<rect x="24.7816" y="10.75" width="8.5" height="8.5" rx="3" fill="white" fill-opacity="0.44"/>
<rect x="24.7816" y="20.6667" width="8.5" height="8.5" rx="3" fill="white" fill-opacity="0.81"/>
<path fill-rule="evenodd" clip-rule="evenodd" d="M7.26627 3.67064C5.41079 4.13089 3.90805 5.04692 2.63369 6.49445C-0.784467 10.3768 -0.132084 15.1123 4.85352 22.6101C6.97556 25.8009 8.4634 27.5057 9.12682 27.5057C9.82959 27.5057 11.1859 25.9431 13.3882 22.5958C18.5026 14.8225 19.0927 10.3488 15.5263 6.38356C13.4887 4.11747 10.0356 2.98324 7.26627 3.67064ZM10.4214 9.35702C12.217 10.2751 12.7185 12.7585 11.3961 14.1852C9.44496 16.2897 6.14428 15.0291 6.15949 12.185C6.17231 9.83694 8.43001 8.33874 10.4214 9.35702Z" fill="white"/>
</svg>
