<svg width="100" height="31" viewBox="0 0 100 31" fill="none" xmlns="http://www.w3.org/2000/svg">
<path fill-rule="evenodd" clip-rule="evenodd" d="M17.9796 0.0477032C16.0996 0.187243 14.3329 0.765397 13.1484 1.62872C11.8876 2.54758 10.9496 4.03416 10.7111 5.49117C10.6081 6.1212 10.6458 7.10734 10.7876 7.48644C11.0777 8.26214 11.3549 8.65073 11.9319 9.09046C12.1419 9.25047 12.8569 9.6109 13.2233 9.74147C13.3616 9.79077 13.5135 9.84737 13.561 9.86724C13.6911 9.92186 14.2707 10.1156 14.4662 10.1699C14.5611 10.1962 14.7745 10.2556 14.9404 10.3019C15.1064 10.3481 15.6593 10.4924 16.169 10.6225C18.3948 11.1906 18.9713 11.5385 19.046 12.3591C19.131 13.2924 18.3714 14.0941 17.0958 14.4174C16.1367 14.6604 15.0873 14.5309 14.4641 14.0927C14.2165 13.9185 13.9705 13.6349 13.9705 13.5236C13.9705 13.4953 13.953 13.4722 13.9317 13.4722C13.8256 13.4722 13.756 12.7402 13.8093 12.185L13.8196 12.0777H11.4055H8.99146L8.93943 12.421C8.83778 13.0913 8.82446 13.7983 8.90356 14.3258C8.94387 14.5946 8.99366 14.8457 9.01418 14.8836C9.03474 14.9216 9.08186 15.0499 9.11893 15.1688C9.29917 15.747 9.90708 16.4954 10.5003 16.8693C11.1174 17.2585 12.0088 17.5944 12.7527 17.7183C12.9009 17.743 13.1336 17.7816 13.27 17.8043C13.6898 17.874 14.6902 17.9344 15.4266 17.9346C18.3039 17.9353 20.934 17.0365 22.4693 15.5281C23.2201 14.7904 23.5269 14.3501 23.872 13.5151C24.3986 12.2409 24.44 10.6069 23.969 9.68427C23.7231 9.20267 23.3057 8.7353 22.8317 8.41065C22.6219 8.26695 21.7159 7.80825 21.6419 7.80825C21.6145 7.80825 21.531 7.78045 21.4563 7.74646C21.2286 7.6428 19.9877 7.30304 19.1004 7.10137C18.4591 6.95561 17.4982 6.68443 17.2683 6.58432C17.1971 6.55338 17.0517 6.49417 16.945 6.45272C16.4245 6.2507 15.9974 5.85212 15.9092 5.48619C15.7617 4.87444 16.1078 4.23819 16.8223 3.80747C17.3627 3.48162 17.9182 3.35761 18.6046 3.40949C19.3246 3.4639 19.8213 3.70578 20.1172 4.14611L20.2859 4.39699V4.92297V5.44899L22.6964 5.43788C25.0696 5.42698 25.1071 5.42548 25.1196 5.34099C25.1267 5.29379 25.1622 5.12572 25.1986 4.96751C25.3523 4.29873 25.3507 3.4191 25.1949 2.87373C25.0516 2.37195 24.6662 1.7517 24.2844 1.40843C23.0825 0.327556 20.8118 -0.162508 17.9796 0.0477032ZM0.0217265 0.141802C0.00948375 0.173555 0.00521616 0.35227 0.0121997 0.538967L0.0249166 0.878463H3.23649H6.44807V0.492282V0.106102L3.24602 0.0951174C0.596146 0.0859778 0.0401338 0.0940445 0.0217265 0.141802ZM92.9793 0.133049C92.9316 0.162313 92.9197 0.781488 92.9653 0.854991C92.9979 0.907469 99.366 0.92017 99.3717 0.867735C99.4081 0.536307 99.4057 0.172096 99.367 0.148281C99.3072 0.111466 93.0388 0.0965335 92.9793 0.133049ZM29.4205 0.37484C29.3944 0.392262 29.3622 0.454737 29.3489 0.513737C29.2852 0.797193 29.1319 1.5169 28.9695 2.29446C28.8709 2.76646 28.7644 3.26849 28.7328 3.41009C28.6334 3.85527 28.2089 5.8471 28.0652 6.54244C27.9555 7.07382 27.7078 8.23927 27.5729 8.85952C27.5113 9.14272 27.4131 9.59648 27.3548 9.86788C27.2964 10.1393 27.2292 10.4482 27.2054 10.5544C27.1434 10.8323 26.6622 13.0858 26.5138 13.794C26.4445 14.1244 26.3476 14.5782 26.2984 14.8024C26.2491 15.0266 26.1408 15.5286 26.0577 15.918C25.9746 16.3074 25.898 16.6647 25.8875 16.7119C25.8364 16.9415 25.7391 17.4791 25.7391 17.5318C25.7391 17.5825 26.7302 17.5915 32.3106 17.5915C36.0979 17.5915 38.8921 17.5753 38.9057 17.5533C38.9358 17.505 38.9955 17.2342 39.338 15.5962C39.4021 15.2894 39.4918 14.8784 39.5372 14.6827C39.5828 14.4871 39.62 14.2989 39.62 14.2644C39.62 14.2098 39.0796 14.2017 35.4562 14.2017H31.2925L31.3213 14.0193C31.3471 13.8555 31.3898 13.6486 31.5578 12.8715C31.6257 12.5575 31.7383 12.0283 31.882 11.3485C31.9469 11.042 32.0165 10.7475 32.0369 10.6942L32.0738 10.5973H35.9087C39.5237 10.5973 39.7448 10.593 39.7656 10.5222C39.7853 10.4553 40.0014 9.40833 40.2283 8.28025C40.2734 8.05605 40.3406 7.75011 40.3777 7.60036C40.4148 7.45061 40.4346 7.30098 40.4219 7.26782C40.4022 7.21667 39.82 7.20753 36.5814 7.20753H32.7641L32.7871 7.11098C32.8162 6.98882 32.887 6.6489 32.9412 6.3708C32.9643 6.25281 33.0207 5.99213 33.0667 5.79153C33.1127 5.59094 33.2196 5.0889 33.3042 4.6759C33.3889 4.2629 33.4767 3.8811 33.4994 3.82746L33.5407 3.72989L37.6862 3.73298C39.9661 3.73469 41.8453 3.72066 41.862 3.70178C41.8787 3.68295 41.9545 3.36825 42.0303 3.00245C42.1061 2.63666 42.1938 2.22151 42.2251 2.07991C42.4728 0.960547 42.5649 0.523262 42.5686 0.449373C42.5729 0.363942 42.5424 0.363513 36.0204 0.353386C32.4166 0.347808 29.4466 0.357462 29.4205 0.37484ZM45.2241 0.356647C45.2241 0.370807 44.9555 1.64975 44.7901 2.42318C44.7447 2.63558 44.669 2.9928 44.6217 3.217C44.5746 3.4412 44.4953 3.81772 44.4456 4.05372C44.3958 4.28972 44.3276 4.61798 44.294 4.78317C44.2604 4.94837 44.2023 5.2187 44.1648 5.3839C44.1274 5.5491 44.0698 5.80977 44.0366 5.96317C44.0036 6.11657 43.928 6.46413 43.8687 6.73553C43.8094 7.00693 43.6836 7.59585 43.5892 8.04425C43.3917 8.98211 43.2706 9.54817 43.1761 9.97515C43.0802 10.4088 42.9013 11.2568 42.8323 11.6057C42.7996 11.7709 42.7315 12.0895 42.681 12.3137C42.6305 12.5379 42.5636 12.8468 42.5322 13.0002C42.476 13.2755 42.0204 15.4038 41.8571 16.154C41.6006 17.3327 41.5674 17.5267 41.6174 17.5584C41.6772 17.5963 45.7901 17.6031 45.8887 17.5654C45.9262 17.5511 45.9569 17.5061 45.9569 17.4654C45.9569 17.4039 46.174 16.362 46.3419 15.6177C46.4638 15.0775 47.0481 12.3379 47.2433 11.3911C47.3275 10.9832 47.4372 10.4712 47.7309 9.11698C47.8026 8.78658 47.8873 8.39074 47.9193 8.23734C47.9727 7.98139 48.3419 6.25126 48.5512 5.27663C48.5994 5.05243 48.6536 4.79583 48.6718 4.70637C48.7212 4.46367 48.7463 4.47161 48.8014 4.7476C48.8288 4.88517 48.8779 5.10392 48.9104 5.23372C48.9429 5.36352 49.0183 5.68212 49.078 5.94172C49.3019 6.91446 49.4583 7.58019 49.5216 7.82971C49.5576 7.97131 49.6139 8.21267 49.6468 8.36607C49.7319 8.76332 49.8566 9.31238 49.9634 9.76061C50.0141 9.97301 50.1029 10.3592 50.161 10.6188C50.2642 11.0804 50.3499 11.4529 50.462 11.9275C50.5724 12.3943 50.7501 13.1554 50.8076 13.4079C50.8399 13.5495 50.9046 13.8294 50.9514 14.03C51.1702 14.9669 51.2166 15.1683 51.3614 15.8108C51.4465 16.1884 51.565 16.7001 51.6248 16.9479C51.6845 17.1957 51.7435 17.4419 51.7558 17.4949L51.7782 17.5915L55.0644 17.5908C56.8718 17.5905 58.3744 17.5751 58.4036 17.5566C58.4533 17.5252 58.5609 17.0717 58.9093 15.4246C59.3018 13.5685 59.4531 12.8587 59.5354 12.4853C59.5849 12.2611 59.6626 11.8933 59.708 11.668C59.7535 11.4426 59.8015 11.2302 59.8147 11.196C59.8279 11.1617 59.866 10.9889 59.8994 10.8119C59.9328 10.6349 60.0009 10.3066 60.0507 10.0824C60.1005 9.85823 60.1692 9.53963 60.2035 9.37443C60.2377 9.20923 60.3154 8.84236 60.3762 8.55916C60.437 8.27596 60.5149 7.90909 60.5492 7.74389C60.5835 7.57869 60.6619 7.21182 60.7233 6.92862C60.8439 6.37188 61.0512 5.40111 61.2822 4.31118C61.6087 2.7704 61.9548 1.15613 62.0361 0.79479C62.0837 0.583592 62.1069 0.395136 62.0877 0.376042C62.0685 0.356905 61.0844 0.346306 59.9009 0.352442L57.749 0.363555L57.6995 0.642463C57.6722 0.795863 57.5492 1.38479 57.4261 1.95119C57.0684 3.59653 56.9913 3.95585 56.9518 4.161C56.9151 4.35155 56.777 4.99703 56.6028 5.79153C56.5536 6.01573 56.4854 6.33433 56.4511 6.49953C56.4169 6.66473 56.3593 6.9254 56.3231 7.0788C56.287 7.2322 56.247 7.41564 56.2343 7.48644C56.2216 7.55724 56.1636 7.83722 56.1053 8.10862C56.0471 8.38001 55.9605 8.7855 55.9129 9.0097C55.8652 9.2339 55.7977 9.54285 55.7627 9.69625C55.7277 9.84965 55.6721 10.1103 55.6391 10.2755C55.5815 10.5646 55.3698 11.5488 55.1822 12.3995C55.1327 12.6237 55.0786 12.8706 55.0617 12.9483C55.0319 13.0858 55.0292 13.0825 54.9583 12.8196C54.9183 12.6711 54.8153 12.2504 54.7296 11.8846C54.6438 11.5188 54.5274 11.0264 54.4709 10.7904C54.4145 10.5544 54.3275 10.1876 54.2776 9.97515C54.1839 9.57619 54.1559 9.4593 53.8254 8.08716C53.7174 7.63876 53.5815 7.06915 53.5234 6.82135C53.3973 6.28353 53.223 5.55339 52.9909 4.59008C52.8971 4.20069 52.729 3.49591 52.6175 3.02391C52.5058 2.55191 52.352 1.90506 52.2754 1.58646C52.1989 1.26786 52.1006 0.857523 52.057 0.674645L51.9776 0.342101H48.6009C46.7436 0.342101 45.2241 0.348623 45.2241 0.356647ZM70.586 0.460916C70.5374 0.526266 70.484 0.622811 70.4672 0.67546C70.4504 0.728109 70.4186 0.77119 70.3965 0.77119C70.3744 0.77119 70.3563 0.788483 70.3563 0.809594C70.3563 0.842634 69.7809 1.80461 69.4343 2.35114C69.3724 2.44884 69.3217 2.54685 69.3217 2.56895C69.3217 2.59104 69.3054 2.61554 69.2856 2.62344C69.2658 2.63129 69.1521 2.80186 69.0329 3.00245C68.9137 3.20305 68.7165 3.52792 68.5947 3.72431C68.4729 3.92075 68.3733 4.09054 68.3733 4.10161C68.3733 4.11264 68.353 4.14503 68.3283 4.17352C68.3035 4.20202 68.0484 4.61154 67.7613 5.08354C67.4742 5.55554 67.0531 6.24555 66.8255 6.61693C66.598 6.98826 66.3917 7.32896 66.3671 7.37397C66.3424 7.41898 66.3014 7.48202 66.2758 7.51403C66.2503 7.54608 66.1762 7.6688 66.1111 7.7868C66.0461 7.9048 65.9258 8.10754 65.8438 8.23734C65.4836 8.80743 64.9557 9.67762 64.9336 9.73778C64.9202 9.77395 64.8961 9.81317 64.8799 9.82497C64.8636 9.83677 64.7121 10.0781 64.5432 10.3613C64.3742 10.6445 64.2209 10.8956 64.2024 10.9192C64.1718 10.9582 63.5752 11.9378 63.4117 12.2175C63.3739 12.2822 63.1528 12.6441 62.9203 13.0217C62.6879 13.3993 62.3869 13.8917 62.2515 14.1159C62.1162 14.3401 61.7861 14.8807 61.5182 15.3173C61.0434 16.0908 60.7418 16.5834 60.3636 17.2029C60.2617 17.37 60.19 17.5258 60.2045 17.5491C60.2214 17.5762 61.0856 17.5915 62.5987 17.5915H64.9666L65.0717 17.4257C65.1296 17.3346 65.2848 17.0542 65.4167 16.8028C65.5486 16.5513 65.6837 16.3025 65.7168 16.2498C65.8124 16.0982 65.9739 15.8049 66.2421 15.2961C66.3788 15.0367 66.5708 14.6891 66.6688 14.5238L66.8468 14.2231L70.0995 14.2102C71.8885 14.2031 73.4517 14.2091 73.5733 14.2234L73.7943 14.2494L73.8455 14.6439C73.8992 15.0579 74.0236 16.0601 74.1281 16.9201C74.1621 17.1998 74.2017 17.4655 74.216 17.5104C74.2413 17.5898 74.3198 17.5918 76.9441 17.5811L79.6461 17.57L79.6404 17.4199C79.6372 17.3373 79.5951 17.0573 79.5468 16.7977C79.4985 16.5381 79.4174 16.1036 79.3666 15.8322C79.3159 15.5608 79.247 15.1746 79.2136 14.974C79.1802 14.7734 79.1323 14.5128 79.1072 14.3948C79.0599 14.1728 78.8009 12.7666 78.6961 12.1635C78.6634 11.9747 78.5865 11.5499 78.5254 11.2195C78.3574 10.3114 78.072 8.748 77.832 7.42207C77.7957 7.22147 77.7382 6.92218 77.7042 6.75699C77.6702 6.59179 77.5752 6.0801 77.4931 5.6199C77.4109 5.1597 77.196 3.98185 77.0155 3.00245C76.835 2.02306 76.6601 1.06005 76.6268 0.862415C76.5935 0.664819 76.5547 0.466923 76.5406 0.422598C76.5158 0.34489 76.413 0.342101 73.5946 0.342101H70.6742L70.586 0.460916ZM85.1021 0.438646C85.0809 0.491767 85.0027 0.834481 84.9282 1.20028C84.685 2.39577 84.6619 2.506 84.5998 2.76646C84.5246 3.08196 84.3035 4.10792 84.0219 5.44826C83.9054 6.00286 83.7695 6.64006 83.7198 6.86426C83.6361 7.2419 83.3601 8.53208 83.2241 9.18134C83.1919 9.33474 83.1255 9.64368 83.0765 9.86788C82.9749 10.3326 82.7881 11.2147 82.704 11.6271C82.6479 11.9021 82.3934 13.0856 82.2102 13.9228C82.0615 14.6023 82.0001 14.8925 81.9514 15.1457C81.9264 15.2755 81.878 15.4975 81.8439 15.6391C81.8097 15.7807 81.7332 16.1283 81.6739 16.4115C81.6146 16.6947 81.5375 17.0609 81.5024 17.2253C81.4531 17.4569 81.4505 17.5317 81.4908 17.5572C81.5195 17.5754 82.6046 17.5905 83.9022 17.5908L86.2616 17.5915L86.2879 17.4735C86.3023 17.4086 86.3302 17.2976 86.3498 17.2268C86.3819 17.1108 86.4844 16.6237 86.5349 16.3471C86.5457 16.2881 86.6066 16.0081 86.6703 15.7249C86.7339 15.4418 86.8137 15.0652 86.8475 14.8882C86.8813 14.7112 86.9392 14.4409 86.9762 14.2875C87.0132 14.1341 87.051 13.97 87.0603 13.9228C87.1376 13.5319 87.2345 13.0764 87.3845 12.3995C87.4812 11.9629 87.5969 11.4223 87.6414 11.1981C87.6859 10.9739 87.763 10.607 87.8127 10.3828C87.8903 10.0326 87.939 9.80215 88.0571 9.22639C88.0798 9.11526 88.1418 8.82889 88.3175 8.0228C88.3767 7.7514 88.4802 7.26867 88.5476 6.95008C88.6151 6.63148 88.7392 6.04839 88.8235 5.65431C88.9077 5.26024 89.046 4.61338 89.1307 4.21686C89.2154 3.82034 89.3341 3.27385 89.3943 3.00245C89.4892 2.57521 89.6609 1.7638 89.8665 0.77119C89.8983 0.617791 89.925 0.458513 89.9259 0.417192C89.9274 0.346563 89.7853 0.342101 87.534 0.342101H85.1406L85.1021 0.438646ZM72.6775 4.02154C72.6815 4.13366 72.7223 4.60188 72.7681 5.06208C72.8139 5.52228 72.8824 6.22706 72.9204 6.62826C73.123 8.76598 73.2645 10.222 73.3114 10.651L73.3337 10.8548H71.069C69.8234 10.8548 68.8053 10.8403 68.8064 10.8226C68.8075 10.8049 68.8743 10.6746 68.9547 10.533C69.1329 10.2194 69.1893 10.116 69.6566 9.2457C69.8593 8.8681 70.1887 8.26137 70.3886 7.89746C70.5884 7.53351 70.7699 7.1956 70.7917 7.14656C70.8136 7.09747 70.8668 6.99942 70.9099 6.92862C70.953 6.85782 71.0816 6.62611 71.1955 6.41371C71.3095 6.20131 71.5331 5.78617 71.6924 5.49117C71.8518 5.19617 72.0651 4.80034 72.1664 4.61154C72.346 4.27698 72.5444 3.91466 72.5835 3.84991C72.6334 3.76735 72.6708 3.83557 72.6775 4.02154ZM0.0323744 4.40386C0.0164243 4.41974 0.00336242 4.59365 0.00336242 4.79034V5.1479H3.23817H6.47298L6.46053 4.77245L6.44807 4.39699L3.25473 4.38601C1.4984 4.37996 0.0483245 4.38798 0.0323744 4.40386ZM92.9542 4.76344L92.9666 5.15133L96.1513 5.14884C97.9028 5.14743 99.3539 5.13524 99.3759 5.12168C99.4048 5.10388 99.4007 4.51856 99.3706 4.38627C99.3693 4.38039 97.9222 4.37554 96.155 4.37554H92.9418L92.9542 4.76344ZM0.0175019 8.69166C0.007587 8.71737 0.00521616 8.89115 0.0121997 9.07784L0.0249166 9.41734H3.23649H6.44807L6.46053 9.04189C6.46992 8.75787 6.45945 8.6663 6.41742 8.66587C3.71564 8.63949 0.0319001 8.65433 0.0175019 8.69166ZM92.9501 8.68789C92.9333 8.71149 92.93 8.88527 92.943 9.07407L92.9666 9.41734L96.1539 9.42832C98.5876 9.43673 99.3487 9.42725 99.373 9.38812C99.4139 9.32225 99.4062 8.71127 99.3641 8.6854C99.2952 8.643 92.9805 8.64545 92.9501 8.68789ZM0.0323744 12.9427C0.0164243 12.9586 0.00336242 13.1325 0.00336242 13.3292V13.6868H3.23817H6.47298L6.46053 13.3113L6.44807 12.9359L3.25473 12.9249C1.4984 12.9188 0.0483245 12.9269 0.0323744 12.9427ZM92.96 12.9681C92.9388 12.9976 92.9282 13.1714 92.9366 13.3545L92.9519 13.6873L96.1708 13.6763L99.3898 13.6653L99.3908 13.3435C99.3914 13.1665 99.3845 12.9976 99.3754 12.9681C99.3625 12.9258 98.6854 12.9144 96.1788 12.9144C93.6841 12.9144 92.9904 12.926 92.96 12.9681ZM96.0201 17.1949L92.9521 17.2059L92.9361 17.5167C92.9095 18.0333 92.5236 17.9798 96.1881 17.9672L99.3846 17.9562V17.5918V17.2274L99.2363 17.2056C99.1547 17.1936 97.7074 17.1888 96.0201 17.1949ZM0.0124582 17.5808L0.0249166 17.9562H3.23649H6.44807L6.46053 17.5808L6.47298 17.2053H3.23649H0L0.0124582 17.5808Z" fill="#1E1E1E"/>
<path d="M24.9653 23.4761H22.9922V29H21.9419V23.4761H19.9819V22.6016H24.9653V23.4761ZM25.9893 22.6016H29.7598V23.4761H28.3931V28.1299H29.7598V29H25.9893V28.1299H27.3252V23.4761H25.9893V22.6016ZM32.4888 22.6016L33.2798 25.3394L34.1543 22.6016H35.4683V29H34.4751V26.8291L34.5366 23.9727L33.5522 27.0269H33.0029L32.1108 24.0781L32.168 26.8291V29H31.1792V22.6016H32.4888ZM40.4033 26.1304H37.7578V28.1299H40.8472V29H36.6987V22.6016H40.8252V23.4761H37.7578V25.2778H40.4033V26.1304ZM49.2012 26.2271L48.5112 27.0005V29H47.4434V22.6016H48.5112V25.6118L49.1089 24.834L50.7964 22.6016H52.0884L49.8999 25.4185L52.1982 29H50.9326L49.2012 26.2271ZM56.6191 26.1304H53.9736V28.1299H57.063V29H52.9146V22.6016H57.041V23.4761H53.9736V25.2778H56.6191V26.1304ZM62.0244 26.1304H59.3789V28.1299H62.4683V29H58.3198V22.6016H62.4463V23.4761H59.3789V25.2778H62.0244V26.1304ZM64.8018 26.561V29H63.7471V22.6016H65.8872C66.2095 22.6045 66.5054 22.6528 66.7749 22.7466C67.0474 22.8403 67.2817 22.9736 67.478 23.1465C67.6743 23.3193 67.8267 23.5288 67.9351 23.7749C68.0435 24.021 68.0977 24.2979 68.0977 24.6055C68.0977 24.9014 68.0435 25.1694 67.9351 25.4097C67.8267 25.647 67.6743 25.8506 67.478 26.0205C67.2817 26.1934 67.0474 26.3267 66.7749 26.4204C66.5054 26.5142 66.2095 26.561 65.8872 26.561H64.8018ZM64.8018 25.6997H65.8872C66.0659 25.6968 66.2256 25.6689 66.3662 25.6162C66.5098 25.5605 66.6313 25.4844 66.731 25.3877C66.8306 25.291 66.9053 25.1768 66.9551 25.0449C67.0078 24.9131 67.0342 24.7695 67.0342 24.6143C67.0342 24.4443 67.0078 24.2905 66.9551 24.1528C66.9053 24.0122 66.8306 23.8906 66.731 23.7881C66.6313 23.6855 66.5098 23.6064 66.3662 23.5508C66.2256 23.4951 66.0659 23.4658 65.8872 23.4629H64.8018V25.6997ZM72.835 26.1304H70.1895V28.1299H73.2788V29H69.1304V22.6016H73.2568V23.4761H70.1895V25.2778H72.835V26.1304ZM76.6274 26.5171H75.5464V29H74.4917V22.6016H76.522C76.853 22.6045 77.1577 22.647 77.436 22.729C77.7144 22.811 77.9546 22.9312 78.1567 23.0894C78.356 23.2505 78.5112 23.4512 78.6226 23.6914C78.7339 23.9287 78.7896 24.207 78.7896 24.5264C78.7896 24.7461 78.7603 24.9453 78.7017 25.124C78.646 25.3027 78.5669 25.4639 78.4644 25.6074C78.3618 25.751 78.2388 25.877 78.0952 25.9854C77.9517 26.0938 77.792 26.1875 77.6162 26.2666L78.9829 28.9429V29H77.8535L76.6274 26.5171ZM75.5464 25.6558H76.5352C76.7227 25.6528 76.8911 25.625 77.0405 25.5723C77.1929 25.5166 77.3218 25.4375 77.4272 25.335C77.521 25.2471 77.5942 25.1387 77.647 25.0098C77.6997 24.8809 77.7261 24.7344 77.7261 24.5703C77.7261 24.3857 77.6968 24.2246 77.6382 24.0869C77.5825 23.9463 77.499 23.8291 77.3877 23.7354C77.2852 23.6475 77.1606 23.5815 77.0142 23.5376C76.8677 23.4907 76.7036 23.4658 76.522 23.4629H75.5464V25.6558Z" fill="#1E1E1E"/>
</svg>
