<svg width="44" height="41" viewBox="0 0 44 41" fill="none" xmlns="http://www.w3.org/2000/svg">
<rect x="20.6713" width="10.2" height="10.2" rx="3" fill="#747F92"/>
<rect x="20.6713" y="11.9" width="10.2" height="10.2" rx="3" fill="#5C6B83"/>
<rect x="20.1241" y="23.8" width="10.2" height="10.2" rx="3" fill="#8C9CB5"/>
<rect x="33.1379" width="10.2" height="10.2" rx="3" fill="#5C6B83"/>
<rect x="33.1379" y="11.9" width="10.2" height="10.2" rx="3" fill="#7D8DA7"/>
<rect x="33.1379" y="23.8" width="10.2" height="10.2" rx="3" fill="#4E5E78"/>
<g filter="url(#filter0_bd_240_885)">
<path fill-rule="evenodd" clip-rule="evenodd" d="M12.1195 3.40484C9.89295 3.95715 8.08965 5.05639 6.56043 6.79342C2.45864 11.4522 3.2415 17.1348 9.22423 26.1322C11.7707 29.9612 13.5561 32.0069 14.3522 32.0069C15.1955 32.0069 16.8231 30.1318 19.4658 26.1151C25.6031 16.7871 26.3112 11.4186 22.0316 6.66035C19.5864 3.94105 15.4427 2.57997 12.1195 3.40484ZM15.9057 10.2285C18.0604 11.3302 18.6622 14.3103 17.0754 16.0223C14.734 18.5477 10.7731 17.035 10.7914 13.6221C10.8068 10.8044 13.516 9.00657 15.9057 10.2285Z" fill="#3F495A"/>
</g>
<defs>
<filter id="filter0_bd_240_885" x="-46" y="-46.8345" width="120.752" height="128.841" filterUnits="userSpaceOnUse" color-interpolation-filters="sRGB">
<feFlood flood-opacity="0" result="BackgroundImageFix"/>
<feGaussianBlur in="BackgroundImageFix" stdDeviation="25"/>
<feComposite in2="SourceAlpha" operator="in" result="effect1_backgroundBlur_240_885"/>
<feColorMatrix in="SourceAlpha" type="matrix" values="0 0 0 0 0 0 0 0 0 0 0 0 0 0 0 0 0 0 127 0" result="hardAlpha"/>
<feOffset dy="4"/>
<feGaussianBlur stdDeviation="2"/>
<feComposite in2="hardAlpha" operator="out"/>
<feColorMatrix type="matrix" values="0 0 0 0 0 0 0 0 0 0 0 0 0 0 0 0 0 0 0.25 0"/>
<feBlend mode="normal" in2="effect1_backgroundBlur_240_885" result="effect2_dropShadow_240_885"/>
<feBlend mode="normal" in="SourceGraphic" in2="effect2_dropShadow_240_885" result="shape"/>
</filter>
</defs>
</svg>
