<svg width="71" height="22" viewBox="0 0 71 22" fill="none" xmlns="http://www.w3.org/2000/svg">
<path fill-rule="evenodd" clip-rule="evenodd" d="M14.6407 0.0325972C13.3452 0.127949 12.1276 0.523021 11.3113 1.11296C10.4424 1.74084 9.79598 2.75667 9.63166 3.7523C9.56063 4.18282 9.58665 4.85668 9.68436 5.11573C9.8843 5.6458 10.0753 5.91133 10.473 6.21181C10.6177 6.32115 11.1104 6.56745 11.3629 6.65667C11.4582 6.69036 11.5629 6.72904 11.5956 6.74261C11.6853 6.77994 12.0848 6.91235 12.2195 6.94941C12.2849 6.96739 12.4319 7.008 12.5463 7.03961C12.6607 7.07122 13.0417 7.16982 13.393 7.25872C14.9269 7.64693 15.3242 7.88467 15.3757 8.44541C15.4343 9.08314 14.9108 9.63097 14.0317 9.85188C13.3707 10.018 12.6475 9.92946 12.218 9.62998C12.0474 9.51096 11.8779 9.31718 11.8779 9.24109C11.8779 9.2218 11.8658 9.20603 11.8511 9.20603C11.778 9.20603 11.73 8.70584 11.7668 8.32639L11.7739 8.25309H10.1102H8.44653L8.41067 8.48766C8.34062 8.94571 8.33144 9.42881 8.38596 9.78928C8.41373 9.97301 8.44805 10.1445 8.46219 10.1705C8.47636 10.1964 8.50883 10.2841 8.53438 10.3653C8.65859 10.7604 9.07754 11.2718 9.48633 11.5274C9.91166 11.7933 10.5259 12.0228 11.0386 12.1075C11.1407 12.1244 11.3011 12.1508 11.3951 12.1663C11.6845 12.2139 12.3738 12.2552 12.8814 12.2553C14.8642 12.2558 16.6768 11.6416 17.7349 10.6109C18.2523 10.1068 18.4637 9.80593 18.7016 9.23535C19.0645 8.3646 19.093 7.24805 18.7684 6.61759C18.5989 6.28849 18.3113 5.96912 17.9846 5.74728C17.84 5.64908 17.2157 5.33564 17.1647 5.33564C17.1458 5.33564 17.0882 5.31664 17.0368 5.29342C16.8798 5.22258 16.0247 4.99041 15.4132 4.8526C14.9712 4.753 14.309 4.56769 14.1506 4.49929C14.1015 4.47814 14.0013 4.43768 13.9277 4.40936C13.5691 4.27131 13.2747 3.99895 13.2139 3.7489C13.1123 3.33087 13.3508 2.8961 13.8432 2.60177C14.2156 2.37911 14.5985 2.29437 15.0715 2.32982C15.5677 2.367 15.91 2.53228 16.1139 2.83317L16.2301 3.00461V3.36403V3.72348L17.8914 3.71588C19.5269 3.70844 19.5527 3.70741 19.5614 3.64968C19.5662 3.61742 19.5907 3.50257 19.6158 3.39447C19.7217 2.93747 19.7206 2.33639 19.6133 1.96371C19.5145 1.62083 19.2489 1.197 18.9858 0.962428C18.1575 0.22383 16.5926 -0.111047 14.6407 0.0325972ZM2.26497 0.0968981C2.25654 0.118596 2.25359 0.240718 2.25841 0.368294L2.26717 0.600283H4.48045H6.69373V0.336393V0.072503L4.48702 0.0649969C2.66084 0.0587515 2.27766 0.0642638 2.26497 0.0968981ZM66.3273 0.0909168C66.2945 0.110914 66.2863 0.534017 66.3177 0.584244C66.3402 0.620104 70.7288 0.628783 70.7327 0.592952C70.7578 0.366476 70.7562 0.117599 70.7295 0.101326C70.6882 0.0761682 66.3683 0.0659645 66.3273 0.0909168ZM22.5253 0.256141C22.5073 0.268045 22.4851 0.310737 22.476 0.351053C22.4321 0.544749 22.3264 1.03655 22.2145 1.56788C22.1466 1.89041 22.0732 2.23347 22.0514 2.33023C21.9829 2.63443 21.6904 3.99552 21.5914 4.47067C21.5157 4.83378 21.3451 5.63017 21.2521 6.05401C21.2096 6.24753 21.142 6.5576 21.1017 6.74305C21.0615 6.92851 21.0152 7.13962 20.9988 7.21219C20.956 7.40204 20.6245 8.94196 20.5222 9.42593C20.4744 9.65171 20.4076 9.96178 20.3737 10.115C20.3398 10.2682 20.2652 10.6112 20.2079 10.8773C20.1506 11.1434 20.0978 11.3875 20.0906 11.4198C20.0553 11.5767 19.9883 11.944 19.9883 11.9801C19.9883 12.0147 20.6713 12.0209 24.5171 12.0209C27.1271 12.0209 29.0528 12.0098 29.0622 11.9948C29.0829 11.9617 29.1241 11.7767 29.36 10.6574C29.4042 10.4478 29.466 10.1669 29.4974 10.0332C29.5288 9.89953 29.5544 9.7709 29.5544 9.74732C29.5544 9.71005 29.182 9.70448 26.6849 9.70448H23.8154L23.8353 9.57987C23.8531 9.46795 23.8825 9.32653 23.9983 8.79553C24.045 8.58096 24.1227 8.21937 24.2217 7.75484C24.2664 7.54534 24.3144 7.34411 24.3284 7.30769L24.3539 7.24151H26.9967C29.4881 7.24151 29.6404 7.23858 29.6548 7.1902C29.6684 7.14443 29.8173 6.42902 29.9736 5.65817C30.0047 5.50497 30.051 5.29591 30.0766 5.19358C30.1021 5.09125 30.1158 4.98901 30.107 4.96634C30.0935 4.93139 29.6922 4.92514 27.4603 4.92514H24.8296L24.8455 4.85917C24.8655 4.77569 24.9143 4.54341 24.9517 4.35338C24.9676 4.27275 25.0065 4.09462 25.0382 3.95755C25.0699 3.82047 25.1435 3.47742 25.2019 3.1952C25.2602 2.91298 25.3207 2.65208 25.3364 2.61543L25.3648 2.54876L28.2217 2.55087C29.7929 2.55204 31.088 2.54245 31.0995 2.52955C31.111 2.51668 31.1632 2.30164 31.2155 2.05168C31.2677 1.80171 31.3281 1.51803 31.3497 1.42127C31.5204 0.656374 31.5839 0.357563 31.5865 0.307072C31.5894 0.248693 31.5684 0.2484 27.0737 0.24148C24.5901 0.237669 22.5433 0.244266 22.5253 0.256141ZM33.4165 0.243709C33.4165 0.253385 33.2314 1.12733 33.1174 1.65584C33.0861 1.80098 33.0339 2.04508 33.0014 2.19828C32.9689 2.35149 32.9142 2.60878 32.88 2.77004C32.8457 2.93131 32.7987 3.15562 32.7755 3.2685C32.7524 3.38139 32.7123 3.56611 32.6865 3.679C32.6607 3.79188 32.621 3.97001 32.5982 4.07483C32.5754 4.17966 32.5233 4.41716 32.4824 4.60261C32.4415 4.78807 32.3549 5.1905 32.2898 5.49691C32.1537 6.13778 32.0703 6.52458 32.0051 6.81636C31.939 7.1127 31.8158 7.69215 31.7682 7.93056C31.7456 8.04344 31.6987 8.26115 31.6639 8.41436C31.6291 8.56756 31.583 8.77867 31.5614 8.88349C31.5227 9.07156 31.2087 10.5259 31.0961 11.0386C30.9193 11.844 30.8965 11.9766 30.9309 11.9982C30.9722 12.0241 33.8066 12.0288 33.8745 12.0031C33.9004 11.9933 33.9215 11.9625 33.9215 11.9347C33.9215 11.8927 34.0711 11.1807 34.1869 10.6721C34.2709 10.303 34.6735 8.43092 34.8081 7.78395C34.8661 7.5052 34.9417 7.15534 35.1441 6.22993C35.1935 6.00416 35.2519 5.73367 35.274 5.62885C35.3107 5.45395 35.5652 4.27169 35.7094 3.6057C35.7426 3.45249 35.78 3.27715 35.7925 3.21602C35.8266 3.05018 35.8439 3.0556 35.8818 3.2442C35.9007 3.3382 35.9346 3.48768 35.9569 3.57637C35.9793 3.66507 36.0313 3.88278 36.0725 4.06017C36.2267 4.72488 36.3345 5.1798 36.3782 5.3503C36.403 5.44706 36.4418 5.61199 36.4645 5.71681C36.5231 5.98827 36.6091 6.36346 36.6827 6.66975C36.7175 6.81489 36.7788 7.07878 36.8188 7.25617C36.8899 7.57161 36.949 7.82614 37.0263 8.15047C37.1023 8.46945 37.2248 8.98952 37.2644 9.16204C37.2867 9.2588 37.3313 9.45012 37.3636 9.5872C37.5143 10.2274 37.5463 10.365 37.6461 10.804C37.7047 11.062 37.7864 11.4117 37.8276 11.581C37.8688 11.7504 37.9094 11.9186 37.9179 11.9549L37.9333 12.0209L40.198 12.0204C41.4436 12.0201 42.4791 12.0097 42.4992 11.997C42.5335 11.9755 42.6077 11.6657 42.8477 10.5401C43.1183 9.27182 43.2225 8.78679 43.2793 8.53164C43.3134 8.37844 43.3669 8.1271 43.3982 7.9731C43.4296 7.81914 43.4626 7.674 43.4717 7.65057C43.4808 7.62717 43.5071 7.50907 43.5301 7.38812C43.5531 7.26717 43.6 7.04286 43.6344 6.88966C43.6687 6.73646 43.7161 6.51875 43.7396 6.40586C43.7632 6.29297 43.8168 6.04228 43.8587 5.84876C43.9006 5.65524 43.9543 5.40454 43.9779 5.29166C44.0016 5.17877 44.0556 4.92808 44.0979 4.73456C44.181 4.35412 44.3239 3.69076 44.483 2.94597C44.7081 1.89311 44.9466 0.79002 45.0026 0.543107C45.0354 0.398788 45.0514 0.27001 45.0382 0.256962C45.0249 0.243885 44.3468 0.236642 43.5311 0.240835L42.0481 0.24843L42.014 0.439017C41.9952 0.54384 41.9104 0.946272 41.8256 1.33331C41.5791 2.45763 41.526 2.70316 41.4988 2.84335C41.4735 2.97356 41.3783 3.41464 41.2582 3.95755C41.2243 4.11075 41.1773 4.32846 41.1537 4.44135C41.1301 4.55423 41.0904 4.73236 41.0655 4.83718C41.0406 4.942 41.013 5.06735 41.0043 5.11573C40.9955 5.16411 40.9555 5.35543 40.9154 5.54089C40.8752 5.72634 40.8156 6.00343 40.7828 6.15663C40.7499 6.30983 40.7034 6.52095 40.6793 6.62577C40.6551 6.73059 40.6168 6.90872 40.5941 7.0216C40.5544 7.21917 40.4085 7.89168 40.2792 8.473C40.2451 8.6262 40.2078 8.79494 40.1962 8.84801C40.1756 8.94199 40.1738 8.9397 40.1249 8.76005C40.0973 8.6586 40.0264 8.37111 39.9673 8.12114C39.9082 7.87118 39.828 7.53472 39.789 7.37346C39.7501 7.21219 39.6902 6.96149 39.6558 6.81636C39.5912 6.54373 39.5719 6.46386 39.3442 5.52623C39.2697 5.21982 39.1761 4.83058 39.136 4.66125C39.0491 4.29374 38.929 3.79482 38.7691 3.13656C38.7044 2.87047 38.5886 2.38887 38.5117 2.06634C38.4348 1.74381 38.3287 1.30179 38.276 1.08408C38.2233 0.866372 38.1555 0.585974 38.1254 0.461008L38.0708 0.233769H35.7436C34.4637 0.233769 33.4165 0.238226 33.4165 0.243709ZM50.8948 0.314959C50.8614 0.359615 50.8245 0.425588 50.813 0.461565C50.8014 0.497541 50.7795 0.52698 50.7642 0.52698C50.749 0.52698 50.7365 0.538796 50.7365 0.553222C50.7365 0.5758 50.34 1.23315 50.1012 1.60661C50.0585 1.67338 50.0235 1.74035 50.0235 1.75545C50.0235 1.77055 50.0123 1.78729 49.9987 1.79268C49.985 1.79805 49.9066 1.9146 49.8245 2.05168C49.7424 2.18875 49.6065 2.41074 49.5225 2.54495C49.4386 2.67918 49.3699 2.7952 49.3699 2.80277C49.3699 2.8103 49.356 2.83244 49.3389 2.85191C49.3219 2.87138 49.146 3.15122 48.9482 3.47375C48.7503 3.79628 48.4601 4.26779 48.3033 4.52157C48.1465 4.77531 48.0043 5.00812 47.9873 5.03888C47.9703 5.06964 47.9421 5.11271 47.9245 5.13459C47.9068 5.15649 47.8558 5.24035 47.811 5.32098C47.7661 5.40161 47.6832 5.54015 47.6267 5.62885C47.3785 6.01841 47.0147 6.61304 46.9994 6.65415C46.9903 6.67887 46.9736 6.70567 46.9624 6.71373C46.9512 6.7218 46.8468 6.88673 46.7304 7.08025C46.614 7.27376 46.5083 7.44529 46.4955 7.46142C46.4744 7.48813 46.0633 8.15753 45.9506 8.34865C45.9246 8.39286 45.7722 8.64013 45.612 8.89815C45.4518 9.15618 45.2444 9.49264 45.1511 9.64584C45.0578 9.79904 44.8304 10.1685 44.6457 10.4668C44.3185 10.9954 44.1106 11.332 43.85 11.7553C43.7798 11.8695 43.7304 11.9759 43.7404 11.9919C43.752 12.0104 44.3476 12.0209 45.3904 12.0209H47.0222L47.0947 11.9076C47.1345 11.8453 47.2415 11.6537 47.3324 11.4819C47.4233 11.3101 47.5164 11.14 47.5392 11.104C47.6051 11.0004 47.7164 10.8 47.9012 10.4523C47.9954 10.2751 48.1278 10.0376 48.1953 9.92457L48.318 9.71914L50.5596 9.71032C51.7925 9.70548 52.8698 9.70953 52.9535 9.71932L53.1059 9.73712L53.1411 10.0067C53.1782 10.2896 53.2639 10.9744 53.3359 11.5621C53.3593 11.7532 53.3866 11.9347 53.3965 11.9654C53.4139 12.0197 53.468 12.0211 55.2766 12.0137L57.1387 12.0062L57.1347 11.9036C57.1326 11.8471 57.1036 11.6558 57.0703 11.4784C57.0369 11.301 56.9811 11.0041 56.9461 10.8187C56.9111 10.6332 56.8637 10.3693 56.8406 10.2323C56.8176 10.0952 56.7846 9.91706 56.7673 9.83643C56.7347 9.68472 56.5562 8.72384 56.484 8.31173C56.4614 8.18272 56.4085 7.89244 56.3664 7.66667C56.2506 7.04612 56.0539 5.9778 55.8885 5.07175C55.8635 4.93467 55.8239 4.73016 55.8004 4.61727C55.777 4.50439 55.7115 4.15473 55.6549 3.84026C55.5983 3.52579 55.4502 2.72093 55.3258 2.05168C55.2014 1.38242 55.0808 0.72437 55.0579 0.589317C55.035 0.454293 55.0082 0.319064 54.9985 0.288776C54.9814 0.235675 54.9106 0.233769 52.9683 0.233769H50.9557L50.8948 0.314959ZM60.8987 0.299741C60.8841 0.336041 60.8302 0.570229 60.7789 0.820191C60.6113 1.63711 60.5954 1.71243 60.5526 1.89041C60.5007 2.10601 60.3484 2.80708 60.1543 3.72298C60.074 4.10195 59.9803 4.53737 59.9461 4.69058C59.8884 4.94863 59.6982 5.83026 59.6045 6.27392C59.5823 6.37874 59.5366 6.58985 59.5027 6.74305C59.4327 7.06063 59.304 7.66335 59.2461 7.94522C59.2074 8.13311 59.032 8.94181 58.9058 9.5139C58.8033 9.97825 58.761 10.1765 58.7274 10.3495C58.7102 10.4382 58.6768 10.59 58.6533 10.6867C58.6297 10.7835 58.577 11.021 58.5362 11.2145C58.4953 11.408 58.4421 11.6583 58.418 11.7707C58.384 11.9289 58.3822 11.98 58.41 11.9975C58.4297 12.0098 59.1776 12.0201 60.0718 12.0204L61.6978 12.0209L61.7159 11.9402C61.7259 11.8959 61.7451 11.82 61.7586 11.7716C61.7807 11.6924 61.8514 11.3595 61.8861 11.1705C61.8936 11.1302 61.9355 10.9389 61.9795 10.7454C62.0233 10.5519 62.0783 10.2946 62.1016 10.1736C62.1249 10.0527 62.1648 9.86795 62.1903 9.76313C62.2158 9.6583 62.2418 9.54615 62.2482 9.5139C62.3015 9.24678 62.3683 8.93551 62.4717 8.473C62.5383 8.17466 62.618 7.80521 62.6487 7.65201C62.6794 7.4988 62.7325 7.24811 62.7668 7.09491C62.8202 6.85562 62.8538 6.69813 62.9352 6.3047C62.9509 6.22876 62.9936 6.03307 63.1147 5.48225C63.1554 5.29679 63.2268 4.96693 63.2733 4.74922C63.3197 4.53151 63.4052 4.13306 63.4633 3.86378C63.5214 3.59449 63.6167 3.15248 63.6751 2.88152C63.7335 2.61057 63.8152 2.23713 63.8568 2.05168C63.9221 1.75973 64.0404 1.20526 64.1821 0.52698C64.204 0.422157 64.2225 0.313317 64.2231 0.285081C64.2241 0.236818 64.1262 0.233769 62.5747 0.233769H60.9253L60.8987 0.299741ZM52.3362 2.74805C52.339 2.82467 52.3671 3.14462 52.3987 3.45909C52.4302 3.77356 52.4774 4.25516 52.5036 4.52931C52.6432 5.99009 52.7407 6.98504 52.7731 7.27816L52.7885 7.41744H51.2277C50.3693 7.41744 49.6676 7.40756 49.6684 7.39545C49.6692 7.38334 49.7152 7.29429 49.7706 7.19753C49.8934 6.98328 49.9323 6.91262 50.2544 6.3179C50.3941 6.05987 50.6211 5.64527 50.7588 5.3966C50.8965 5.1479 51.0216 4.91699 51.0366 4.88348C51.0517 4.84994 51.0884 4.78294 51.1181 4.73456C51.1478 4.68618 51.2364 4.52784 51.3149 4.3827C51.3934 4.23757 51.5475 3.95388 51.6574 3.7523C51.7672 3.55072 51.9142 3.28023 51.984 3.15122C52.1077 2.9226 52.2445 2.67501 52.2715 2.63077C52.3058 2.57436 52.3316 2.62098 52.3362 2.74805ZM2.27231 3.0093C2.26132 3.02015 2.25232 3.13899 2.25232 3.2734V3.51773H4.48161H6.7109L6.70232 3.26117L6.69373 3.00461L4.49302 2.99711C3.28264 2.99297 2.2833 2.99846 2.27231 3.0093ZM66.3101 3.25502L66.3186 3.52008L68.5134 3.51838C69.7204 3.51741 70.7205 3.50908 70.7356 3.49982C70.7556 3.48765 70.7527 3.08768 70.732 2.99728C70.731 2.99327 69.7338 2.98995 68.5159 2.98995H66.3015L66.3101 3.25502ZM2.26206 5.9393C2.25523 5.95687 2.25359 6.07562 2.25841 6.20319L2.26717 6.43518H4.48045H6.69373L6.70232 6.17862C6.70879 5.98455 6.70158 5.92197 6.67261 5.92168C4.81066 5.90365 2.27198 5.91379 2.26206 5.9393ZM66.3073 5.93672C66.2956 5.95285 66.2934 6.0716 66.3024 6.20061L66.3186 6.43518L68.5152 6.44269C70.1924 6.44843 70.7169 6.44195 70.7336 6.41521C70.7618 6.37021 70.7565 5.9527 70.7275 5.93502C70.68 5.90605 66.3282 5.90772 66.3073 5.93672ZM2.27231 8.8442C2.26132 8.85505 2.25232 8.97389 2.25232 9.1083V9.35263H4.48161H6.7109L6.70232 9.09607L6.69373 8.83951L4.49302 8.83201C3.28264 8.82787 2.2833 8.83335 2.27231 8.8442ZM66.3141 8.8615C66.2994 8.88167 66.2921 9.00048 66.2979 9.12557L66.3084 9.35301L68.5268 9.34548L70.7452 9.33797L70.7459 9.11806C70.7463 8.99711 70.7415 8.88167 70.7353 8.8615C70.7264 8.83262 70.2598 8.82485 68.5323 8.82485C66.8131 8.82485 66.335 8.83274 66.3141 8.8615ZM68.4229 11.7498L66.3086 11.7573L66.2976 11.9697C66.2792 12.3227 66.0133 12.2862 68.5387 12.2776L70.7416 12.2701V12.0211V11.7721L70.6394 11.7572C70.5832 11.749 69.5858 11.7457 68.4229 11.7498ZM2.25859 12.0135L2.26717 12.2701H4.48045H6.69373L6.70232 12.0135L6.7109 11.757H4.48045H2.25L2.25859 12.0135Z" fill="white"/>
<path d="M31.4742 16.6003H30.1588V20.2829H29.4586V16.6003H28.152V16.0173H31.4742V16.6003ZM32.1568 16.0173H34.6705V16.6003H33.7594V19.7028H34.6705V20.2829H32.1568V19.7028H33.0475V16.6003H32.1568V16.0173ZM36.4898 16.0173L37.0172 17.8425L37.6002 16.0173H38.4762V20.2829H37.8141V18.8356L37.8551 16.9313L37.1988 18.9675H36.8326L36.2379 17.0016L36.276 18.8356V20.2829H35.6168V16.0173H36.4898ZM41.7662 18.3698H40.0025V19.7028H42.0621V20.2829H39.2965V16.0173H42.0475V16.6003H40.0025V17.8015H41.7662V18.3698ZM47.6314 18.4343L47.1715 18.9499V20.2829H46.4596V16.0173H47.1715V18.0241L47.5699 17.5056L48.6949 16.0173H49.5563L48.0973 17.8952L49.6295 20.2829H48.7857L47.6314 18.4343ZM52.5768 18.3698H50.8131V19.7028H52.8727V20.2829H50.107V16.0173H52.858V16.6003H50.8131V17.8015H52.5768V18.3698ZM56.1803 18.3698H54.4166V19.7028H56.4762V20.2829H53.7105V16.0173H56.4615V16.6003H54.4166V17.8015H56.1803V18.3698ZM58.0318 18.6569V20.2829H57.3287V16.0173H58.7555C58.9703 16.0192 59.1676 16.0515 59.3473 16.114C59.5289 16.1765 59.6852 16.2653 59.816 16.3806C59.9469 16.4958 60.0484 16.6354 60.1207 16.7995C60.193 16.9636 60.2291 17.1481 60.2291 17.3532C60.2291 17.5505 60.193 17.7292 60.1207 17.8893C60.0484 18.0475 59.9469 18.1833 59.816 18.2966C59.6852 18.4118 59.5289 18.5007 59.3473 18.5632C59.1676 18.6257 58.9703 18.6569 58.7555 18.6569H58.0318ZM58.0318 18.0827H58.7555C58.8746 18.0807 58.9811 18.0622 59.0748 18.027C59.1705 17.9899 59.2516 17.9391 59.318 17.8747C59.3844 17.8102 59.4342 17.7341 59.4674 17.6462C59.5025 17.5583 59.5201 17.4626 59.5201 17.3591C59.5201 17.2458 59.5025 17.1432 59.4674 17.0515C59.4342 16.9577 59.3844 16.8766 59.318 16.8083C59.2516 16.7399 59.1705 16.6872 59.0748 16.6501C58.9811 16.613 58.8746 16.5934 58.7555 16.5915H58.0318V18.0827ZM63.3873 18.3698H61.6236V19.7028H63.6832V20.2829H60.9176V16.0173H63.6686V16.6003H61.6236V17.8015H63.3873V18.3698ZM65.9156 18.6276H65.1949V20.2829H64.4918V16.0173H65.8453C66.066 16.0192 66.2691 16.0475 66.4547 16.1022C66.6402 16.1569 66.8004 16.237 66.9352 16.3425C67.068 16.4499 67.1715 16.5837 67.2457 16.7438C67.3199 16.902 67.357 17.0876 67.357 17.3005C67.357 17.447 67.3375 17.5798 67.2984 17.6989C67.2613 17.8181 67.2086 17.9255 67.1402 18.0212C67.0719 18.1169 66.9898 18.2009 66.8941 18.2731C66.7984 18.3454 66.692 18.4079 66.5748 18.4606L67.4859 20.2448V20.2829H66.733L65.9156 18.6276ZM65.1949 18.0534H65.8541C65.9791 18.0515 66.0914 18.0329 66.191 17.9977C66.2926 17.9606 66.3785 17.9079 66.4488 17.8395C66.5113 17.7809 66.5602 17.7087 66.5953 17.6227C66.6305 17.5368 66.648 17.4391 66.648 17.3298C66.648 17.2067 66.6285 17.0993 66.5895 17.0075C66.5523 16.9138 66.4967 16.8356 66.4225 16.7731C66.3541 16.7145 66.2711 16.6706 66.1734 16.6413C66.0758 16.61 65.9664 16.5934 65.8453 16.5915H65.1949V18.0534Z" fill="white"/>
</svg>
