<svg width="40" height="34" viewBox="0 0 40 34" fill="none" xmlns="http://www.w3.org/2000/svg">
<rect x="16.6713" width="10.2" height="10.2" rx="3" fill="#747F92"/>
<rect x="16.6713" y="11.9" width="10.2" height="10.2" rx="3" fill="#5C6B83"/>
<rect x="16.1241" y="23.8" width="10.2" height="10.2" rx="3" fill="#8C9CB5"/>
<rect x="29.1379" width="10.2" height="10.2" rx="3" fill="#5C6B83"/>
<rect x="29.1379" y="11.9" width="10.2" height="10.2" rx="3" fill="#7D8DA7"/>
<rect x="29.1379" y="23.8" width="10.2" height="10.2" rx="3" fill="#4E5E78"/>
<path fill-rule="evenodd" clip-rule="evenodd" d="M8.11953 3.40484C5.89295 3.95715 4.08965 5.05639 2.56043 6.79342C-1.54136 11.4522 -0.758501 17.1348 5.22423 26.1322C7.77067 29.9612 9.55608 32.0069 10.3522 32.0069C11.1955 32.0069 12.8231 30.1318 15.4658 26.1151C21.6031 16.7871 22.3112 11.4186 18.0316 6.66035C15.5864 3.94105 11.4427 2.57997 8.11953 3.40484ZM11.9057 10.2285C14.0604 11.3302 14.6622 14.3103 13.0754 16.0223C10.734 18.5477 6.77313 17.035 6.79138 13.6221C6.80677 10.8044 9.51601 9.00657 11.9057 10.2285Z" fill="#3F495A"/>
</svg>
