<svg width="430" height="257" viewBox="0 0 430 257" fill="none" xmlns="http://www.w3.org/2000/svg">
<path d="M202.66 187.277C203.494 186.757 204.56 187.065 205.041 187.966C205.523 188.867 205.237 190.018 204.403 190.538L200.927 192.703L205.847 194.127C206.559 194.333 207.074 195 207.133 195.793L207.834 205.094C207.932 206.392 206.81 207.403 205.645 207.066L203.299 206.387L193.688 229.729C192.336 233.146 188.937 234.724 185.544 233.743L179.265 231.925C175.872 230.944 173.659 227.741 174.068 224.079L176.552 198.646L174.207 197.968C173.042 197.631 172.538 196.149 173.224 195.078L178.137 187.401C178.556 186.747 179.311 186.447 180.022 186.653L196.165 191.325L202.66 187.277ZM203.757 197.421L180.307 190.635L177.499 195.021L204.158 202.736L203.757 197.421Z" fill="#282828" fill-opacity="0.25"/>
<path d="M-12.1218 182.694C-14.6019 179.669 -14.3181 175.087 -10.9806 172.899C-6.71666 170.104 -1.97098 168.218 2.99933 167.371C10.2544 166.136 17.6853 167.168 24.4151 170.345C31.145 173.522 36.893 178.712 40.981 185.302C45.0689 191.893 47.3261 199.609 47.4863 207.539C47.6465 215.47 45.703 223.285 41.8851 230.062C38.0671 236.838 32.5341 242.294 25.939 245.785C19.3438 249.276 11.9616 250.657 4.66358 249.764C-0.443209 249.14 -5.35969 247.42 -9.80652 244.733C-13.0643 242.763 -13.435 238.331 -11.0921 235.209V235.209C-8.4972 231.752 -3.59442 231.307 0.304977 232.922C2.21253 233.712 4.21423 234.243 6.2646 234.494C10.8654 235.056 15.5192 234.186 19.6768 231.985C23.8345 229.784 27.3226 226.345 29.7295 222.073C32.1363 217.801 33.3616 212.874 33.2606 207.875C33.1596 202.875 31.7366 198.011 29.1595 193.856C26.5824 189.701 22.9588 186.43 18.7162 184.427C14.4736 182.424 9.78911 181.773 5.21543 182.552C3.2617 182.885 1.36303 183.472 -0.441303 184.295C-4.41258 186.105 -9.40111 186.012 -12.1218 182.694V182.694Z" fill="#282828" fill-opacity="0.25"/>
<path d="M453.08 173.43C456.667 174.781 458.622 178.749 456.889 182.16C454.888 186.098 452.303 189.673 449.224 192.737C444.568 197.37 438.925 200.692 432.796 202.408C426.668 204.124 420.242 204.18 414.088 202.573C407.934 200.966 402.242 197.744 397.516 193.194C392.79 188.643 389.176 182.904 386.994 176.484C384.813 170.065 384.13 163.164 385.008 156.391C385.886 149.619 388.296 143.185 392.026 137.66C394.207 134.429 396.8 131.566 399.717 129.152C403.069 126.377 407.896 128.078 409.677 132.06V132.06C411.309 135.708 409.715 139.923 406.861 142.709C405.629 143.912 404.51 145.253 403.524 146.713C401.173 150.197 399.653 154.253 399.1 158.522C398.547 162.791 398.977 167.142 400.352 171.189C401.727 175.236 404.006 178.854 406.985 181.723C409.964 184.591 413.552 186.622 417.432 187.635C421.311 188.649 425.363 188.613 429.226 187.531C433.09 186.45 436.647 184.356 439.582 181.434C440.78 180.242 441.86 178.927 442.807 177.512C445.077 174.12 449.253 171.989 453.08 173.43V173.43Z" fill="#282828" fill-opacity="0.25"/>
<path d="M70.5 48.0625V64.2635H85.5C86.8807 64.2635 88.0187 65.4791 87.8237 66.9555C86.614 76.119 79.3187 83.1645 70.5 83.1645C60.835 83.1645 53 74.7022 53 64.2635C53 54.7386 59.5231 46.8594 68.0074 45.5526C69.3743 45.3421 70.5 46.5713 70.5 48.0625ZM75.5 39.9622C84.9636 39.9622 92.6727 48.0755 92.9899 58.2134L93 58.8632L92.9967 59.231C92.9748 60.4709 92.058 61.409 90.9387 61.546L90.655 61.5633H75.5C74.2179 61.5633 73.1612 60.5209 73.0168 59.1781L73 58.8632V42.495C73 41.1514 73.9158 39.9913 75.1595 39.9657L75.5 39.9622Z" fill="#282828" fill-opacity="0.25"/>
<path d="M143.566 52.8897C144.567 48.8565 148.405 46.463 152.14 47.5437L183.693 56.6753C187.427 57.756 189.643 61.9016 188.643 65.9349L183.812 85.409C182.811 89.4421 178.972 91.8357 175.238 90.755L143.685 81.6234C139.951 80.5427 137.734 76.3969 138.735 72.3638L143.566 52.8897Z" fill="#282828" fill-opacity="0.25"/>
<path d="M133.462 83.8828C132.217 83.5226 130.937 84.3207 130.604 85.6649C130.27 87.0091 131.009 88.3911 132.254 88.7514L181.838 103.101C183.083 103.461 184.362 102.663 184.696 101.319C185.029 99.9749 184.29 98.5927 183.046 98.2325L133.462 83.8828Z" fill="#282828" fill-opacity="0.25"/>
<path d="M368 49.5724L367.699 49.3849L370.499 44.1469C372.819 39.8076 377.956 38.3208 381.974 40.8261L386.824 43.8503C390.842 46.3556 392.218 51.9042 389.898 56.2435L387.098 61.4815L386.798 61.294C390.851 68.5871 391.215 77.9744 386.998 85.8629L379.998 98.9579C377.678 103.297 372.541 104.784 368.523 102.279L344.275 87.1578C340.257 84.6525 338.88 79.1037 341.2 74.7646L348.2 61.6696C352.417 53.7811 360.126 49.4278 368 49.5724ZM375.349 47.1711L373.596 50.4502C375.377 50.9858 377.124 51.77 378.799 52.8142C380.474 53.8585 381.976 55.101 383.296 56.4985L385.049 53.2194C385.822 51.773 385.363 49.9234 384.024 49.0883L379.174 46.0641C377.835 45.229 376.122 45.7246 375.349 47.1711ZM366.949 62.8851C366.176 64.3315 366.635 66.181 367.974 67.0161L372.824 70.0403C374.163 70.8754 375.876 70.3798 376.649 68.9334C377.422 67.487 376.963 65.6374 375.624 64.8023L370.774 61.7781C369.435 60.943 367.722 61.4386 366.949 62.8851ZM357.524 74.468C356.185 73.6329 354.473 74.1285 353.699 75.5749C352.926 77.0213 353.385 78.8709 354.724 79.706L369.274 88.7785C370.613 89.6136 372.325 89.118 373.098 87.6715C373.872 86.2251 373.413 84.3756 372.074 83.5405L357.524 74.468Z" fill="#282828" fill-opacity="0.25"/>
<path d="M243.433 158.211C240.374 157.326 237.23 159.287 236.41 162.591L233.442 174.555C230.436 186.67 237.093 199.121 248.309 202.368C257.605 205.058 267.116 200.58 271.811 192.071L274.422 192.827C279.52 194.302 284.761 191.034 286.127 185.528C287.493 180.021 284.467 174.361 279.369 172.886L277.207 172.26C277.024 169.717 275.385 167.458 272.973 166.76L243.433 158.211ZM276.533 176.34L278.38 176.874C281.439 177.759 283.254 181.155 282.434 184.459C281.615 187.763 278.47 189.724 275.411 188.838L273.482 188.28C273.7 187.639 273.893 186.982 274.06 186.31L276.533 176.34Z" fill="#282828" fill-opacity="0.25"/>
<path d="M56.3924 124.011L76.3158 120.08C81.5216 119.053 86.897 120.055 91.4446 122.916L94.0541 124.557L95.9578 122.025C99.2755 117.613 103.976 114.623 109.182 113.596L129.126 109.661C130.671 109.357 132.153 110.462 132.435 112.13L132.946 115.15L135.743 114.598C137.288 114.294 138.769 115.399 139.051 117.067L152.282 195.296C152.564 196.964 151.54 198.563 149.995 198.868L66.071 215.425C64.5261 215.73 63.0449 214.625 62.7628 212.957L49.5325 134.728C49.2503 133.06 50.2741 131.46 51.8191 131.155L54.6166 130.604L54.1057 127.583C53.8236 125.915 54.8474 124.316 56.3924 124.011ZM127.351 116.254L110.203 119.637C106.319 120.403 102.827 122.633 100.373 125.896L97.7682 129.36L107.306 185.753C107.588 187.421 106.564 189.021 105.019 189.326C103.474 189.631 101.993 188.525 101.711 186.857L92.1767 130.483L88.5814 128.222C85.218 126.106 81.2222 125.355 77.3375 126.121L60.2115 129.5L72.072 199.629L89.7403 196.144C94.5869 195.187 99.5824 196.046 103.925 198.56L104.915 199.17L106.887 200.456L108.318 198.499C111.375 194.292 115.639 191.348 120.412 190.125L121.522 189.873L139.211 186.384L127.351 116.254Z" fill="#282828" fill-opacity="0.25"/>
<path d="M274.221 85.7671C276.397 83.1409 279.806 82.1545 282.906 83.254L303.066 90.4046C303.589 90.5898 303.991 91.0451 304.137 91.6174C304.284 92.1898 304.156 92.8034 303.796 93.2522L289.821 110.673C287.622 113.415 284.099 114.434 280.926 113.248L263.683 106.801L266.369 117.626C266.603 118.572 266.083 119.545 265.207 119.799C264.33 120.052 263.43 119.49 263.195 118.544L259.793 104.833C259.779 104.775 259.767 104.717 259.758 104.658C259.738 104.599 259.72 104.538 259.705 104.476C259.567 103.901 259.704 103.29 260.071 102.847L274.221 85.7671Z" fill="#282828" fill-opacity="0.25"/>
<path d="M270.393 120.135L268.46 112.342L279.851 116.601C284.294 118.262 289.226 116.835 292.305 112.997L300.197 103.158L302.13 110.95C302.231 111.357 302.195 111.789 302.028 112.169C302.028 112.169 302.028 112.169 300.543 111.409L302.028 112.169L302.025 112.176L302.021 112.186L302.008 112.214L301.965 112.307C301.929 112.383 301.878 112.49 301.811 112.623C301.677 112.889 301.48 113.262 301.216 113.712C300.69 114.611 299.895 115.829 298.803 117.131C296.623 119.73 293.219 122.714 288.388 124.112C283.557 125.51 279.228 124.764 276.136 123.69C274.588 123.153 273.335 122.528 272.463 122.033C272.027 121.786 271.684 121.569 271.444 121.411C271.325 121.332 271.231 121.268 271.164 121.221L271.084 121.164L271.06 121.146L271.052 121.14L271.048 121.137L271.98 119.676C271.046 121.136 271.048 121.137 271.048 121.137C270.728 120.898 270.494 120.542 270.393 120.135Z" fill="#282828" fill-opacity="0.25"/>
<path d="M334.2 134.983C330.124 133.803 325.934 136.416 324.842 140.818L312.977 188.642C311.885 193.045 314.304 197.569 318.38 198.749L353.435 208.894C354.453 209.189 355.501 208.535 355.774 207.435C356.047 206.335 355.442 205.203 354.423 204.908L319.369 194.763C317.331 194.174 316.121 191.911 316.667 189.71L353.567 200.389C355.605 200.979 357.7 199.673 358.246 197.472L369.122 153.632C370.214 149.23 367.795 144.705 363.719 143.526L334.2 134.983ZM334.495 145.747L358.48 152.688C360.008 153.131 360.915 154.828 360.506 156.478C360.096 158.129 358.525 159.109 356.997 158.666L333.012 151.725C331.484 151.283 330.577 149.586 330.986 147.935C331.396 146.284 332.967 145.305 334.495 145.747Z" fill="#282828" fill-opacity="0.25"/>
<path d="M226.702 5.03632C228.027 3.4058 230.508 4.12375 230.901 6.25124L232.387 14.3112L239.378 17.5577C241.223 18.4146 241.357 21.1848 239.605 22.2453L232.967 26.2632L232.269 34.4468C232.084 36.6069 229.687 37.6011 228.211 36.1292L222.622 30.5523L215.2 32.3637C213.241 32.8417 211.625 30.6858 212.465 28.7156L215.648 21.2511L211.76 14.1869C210.733 12.3222 212.132 9.99578 214.127 10.2501L221.684 11.2135L226.702 5.03632Z" fill="#282828" fill-opacity="0.25"/>
</svg>
