<svg width="200" height="185" viewBox="0 0 200 185" fill="none" xmlns="http://www.w3.org/2000/svg">
<path d="M152.702 11.663C154.027 10.1533 156.508 10.8181 156.901 12.7879L158.387 20.2504L165.378 23.2563C167.223 24.0497 167.357 26.6145 165.605 27.5964L158.967 31.3165L158.269 38.8935C158.084 40.8934 155.687 41.8139 154.211 40.4512L148.622 35.2876L141.2 36.9648C139.241 37.4073 137.625 35.4113 138.465 33.5871L141.648 26.6759L137.76 20.1353C136.733 18.4088 138.132 16.2549 140.127 16.4903L147.684 17.3824L152.702 11.663Z" fill="white" fill-opacity="0.17"/>
<path d="M108.141 26.1433C110.879 27.3269 112.14 30.5061 110.956 33.2442L96.1921 67.3974C95.0085 70.1355 91.8293 71.3957 89.0913 70.212L65.9577 60.2119C63.2197 59.0283 61.9595 55.8491 63.1431 53.111L77.9069 18.9577C79.0905 16.2197 82.2697 14.9595 85.0078 16.1431L108.141 26.1433ZM102.921 57.889L104.573 58.6034C105.41 58.965 105.833 59.8856 105.593 60.7396L105.511 60.9703L104.085 64.2712C103.723 65.1078 102.802 65.5305 101.948 65.2913L101.718 65.2094L100.065 64.495L102.921 57.889ZM106.731 49.0752L108.383 49.7896C109.22 50.1513 109.643 51.0719 109.403 51.9258L109.321 52.1566L107.895 55.4575C107.533 56.2941 106.612 56.7168 105.758 56.4775L105.528 56.3957L103.875 55.6813L106.731 49.0752ZM110.541 40.2615L112.193 40.9759C113.03 41.3375 113.453 42.2581 113.213 43.1121L113.131 43.3428L111.705 46.6437C111.343 47.4803 110.422 47.903 109.568 47.6638L109.338 47.5819L107.685 46.8675L110.541 40.2615ZM100.414 31.9491L86.0864 25.7557C85.2498 25.394 84.2896 25.7169 83.8315 26.4762L83.7194 26.6939L82.2873 30.007C81.9256 30.8436 82.2484 31.8038 83.0077 32.2619L83.2255 32.3739L97.5527 38.5673C98.3894 38.929 99.3496 38.6061 99.8077 37.8468L99.9197 37.6291L101.352 34.316C101.746 33.4034 101.326 32.3436 100.414 31.9491Z" fill="white" fill-opacity="0.17"/>
<path d="M122.415 81.6226C125.25 80.7053 128.358 81.5526 130.335 83.7813L143.192 98.2753C143.525 98.6509 143.648 99.1682 143.52 99.6536C143.392 100.139 143.03 100.528 142.555 100.69L124.114 106.986C121.212 107.977 118 107.101 116.002 104.775L105.146 92.1371L102.655 101.277C102.438 102.076 101.613 102.548 100.814 102.33C100.015 102.112 99.5432 101.287 99.761 100.488L102.916 88.9104C102.93 88.8614 102.945 88.8137 102.963 88.7672C102.972 88.7144 102.984 88.6617 102.999 88.6095C103.134 88.1262 103.503 87.7429 103.981 87.5883L122.415 81.6226Z" fill="white" fill-opacity="0.17"/>
<path d="M104.761 104.96L106.554 98.3803L113.726 106.73C116.523 109.986 121.021 111.212 125.084 109.825L135.498 106.269L133.705 112.849C133.612 113.192 133.399 113.491 133.105 113.692C133.105 113.692 133.105 113.692 132.258 112.454L133.105 113.692L133.1 113.696L133.093 113.701L133.07 113.716L132.997 113.764C132.936 113.803 132.85 113.857 132.741 113.924C132.522 114.057 132.207 114.238 131.808 114.446C131.01 114.861 129.864 115.384 128.449 115.832C125.622 116.728 121.667 117.341 117.261 116.141C112.855 114.94 109.758 112.404 107.777 110.198C106.785 109.093 106.063 108.061 105.586 107.299C105.347 106.917 105.168 106.602 105.047 106.376C104.986 106.263 104.94 106.173 104.907 106.108L104.868 106.03L104.857 106.005L104.853 105.997L104.851 105.994L106.208 105.355C104.85 105.992 104.851 105.994 104.851 105.994C104.7 105.672 104.667 105.304 104.761 104.96Z" fill="white" fill-opacity="0.17"/>
<path d="M77.7498 133.313L77.5211 133.367L76.6636 129.678C75.9533 126.622 77.8546 123.569 80.9105 122.859L84.5992 122.001C87.655 121.291 90.7081 123.192 91.4185 126.248L92.2759 129.937L92.0472 129.99C97.1684 131.452 101.363 135.577 102.655 141.132L104.798 150.354C105.509 153.41 103.607 156.463 100.551 157.173L82.1079 161.461C79.0521 162.171 75.999 160.27 75.2886 157.214L73.1449 147.992C71.8535 142.437 73.7989 136.885 77.7498 133.313ZM80.3523 128.82L80.8891 131.13C81.9976 130.552 83.1961 130.103 84.4698 129.807C85.7435 129.511 87.017 129.385 88.2666 129.415L87.7298 127.105C87.493 126.087 86.4753 125.453 85.4567 125.69L81.768 126.547C80.7494 126.784 80.1156 127.802 80.3523 128.82ZM82.9248 139.887C83.1616 140.905 84.1793 141.539 85.1979 141.302L88.8866 140.445C89.9052 140.208 90.539 139.19 90.3022 138.172C90.0654 137.153 89.0477 136.519 88.0291 136.756L84.3404 137.613C83.3218 137.85 82.688 138.868 82.9248 139.887ZM83.2242 149.537C82.2056 149.774 81.5718 150.792 81.8085 151.81C82.0453 152.829 83.063 153.463 84.0816 153.226L95.1478 150.653C96.1664 150.417 96.8002 149.399 96.5634 148.38C96.3266 147.362 95.3089 146.728 94.2903 146.965L83.2242 149.537Z" fill="white" fill-opacity="0.17"/>
<path d="M36.466 72.1837L45.2534 77.3678C47.5494 78.7224 49.2903 80.8486 50.1486 83.3573L50.641 84.7968L52.1391 84.5316C54.7499 84.0695 57.4531 84.5651 59.7491 85.9196L68.5458 91.1093C69.2271 91.5112 69.4538 92.3896 69.0518 93.071L68.3239 94.3049L69.5577 95.0328C70.239 95.4347 70.4656 96.3131 70.0636 96.9945L51.2107 128.951C50.8086 129.633 49.9303 129.859 49.249 129.457L12.2338 107.62C11.5524 107.218 11.3258 106.34 11.7279 105.658L30.5808 73.7015C30.9828 73.0201 31.8611 72.7936 32.5426 73.1956L33.7764 73.9235L34.5043 72.6896C34.9063 72.0082 35.7846 71.7817 36.466 72.1837ZM65.8562 92.849L58.2932 88.3873C56.5799 87.3765 54.5694 87.0111 52.6386 87.353L50.5886 87.7157L36.9979 110.753C36.596 111.434 35.7175 111.661 35.0362 111.259C34.3548 110.857 34.1283 109.978 34.5303 109.297L48.1162 86.268L47.4377 84.2847C46.803 82.4293 45.511 80.8463 43.7976 79.8355L36.2441 75.3793L19.3431 104.027L27.1358 108.625C29.2735 109.886 30.9136 111.836 31.7994 114.155L31.9902 114.697L32.3484 115.801L33.4909 115.582C35.94 115.106 38.4627 115.474 40.6538 116.617L41.1534 116.894L48.9552 121.497L65.8562 92.849Z" fill="white" fill-opacity="0.17"/>
<path d="M169.892 149.768L149.151 170.515C148.038 171.628 146.644 172.417 145.117 172.799L137.159 174.788C135.888 175.106 134.735 173.954 135.053 172.682L137.043 164.725C137.425 163.198 138.214 161.803 139.327 160.691L160.068 139.944L169.892 149.768ZM174.807 135.035C177.52 137.748 177.52 142.146 174.807 144.859L172.348 147.312L162.524 137.488L164.983 135.035C167.696 132.322 172.094 132.322 174.807 135.035Z" fill="white" fill-opacity="0.17"/>
<circle cx="18.5" cy="171.5" r="38.5" fill="white" fill-opacity="0.17"/>
<path d="M225.007 76.9996C228.926 77.2867 231.935 80.7276 230.932 84.5269C229.932 88.319 228.354 91.9496 226.243 95.2875C222.858 100.638 218.206 105.072 212.699 108.195C207.192 111.318 200.999 113.035 194.67 113.194C188.34 113.352 182.069 111.947 176.413 109.104C170.756 106.26 165.888 102.065 162.24 96.89C158.592 91.7153 156.276 85.7208 155.498 79.4375C154.72 73.1541 155.503 66.7758 157.779 60.8676C159.199 57.1819 161.172 53.7501 163.618 50.6852C166.07 47.6145 170.626 47.9767 173.194 50.9507C175.762 53.9247 175.317 58.3849 173.212 61.7027C172.358 63.0497 171.635 64.4826 171.057 65.9821C169.622 69.7067 169.129 73.7277 169.619 77.6888C170.11 81.6499 171.569 85.4289 173.869 88.691C176.169 91.9532 179.238 94.5978 182.804 96.3906C186.37 98.1834 190.323 99.0691 194.313 98.9692C198.303 98.8693 202.207 97.7869 205.679 95.8179C209.151 93.8489 212.084 91.054 214.218 87.6808C215.077 86.3228 215.795 84.8879 216.367 83.3984C217.774 79.7298 221.089 76.7124 225.007 76.9996Z" fill="white" fill-opacity="0.17"/>
<path d="M22.8081 -10.0821C24.287 -13.7224 28.4866 -15.5262 31.7932 -13.4036C35.0936 -11.2851 38.0627 -8.66699 40.5891 -5.63102C44.639 -0.764316 47.4261 5.02606 48.7036 11.2272C49.9811 17.4283 49.7095 23.8488 47.913 29.9199C46.1165 35.9911 42.8504 41.5254 38.4041 46.0328C33.9578 50.5402 28.4685 53.8814 22.4224 55.7606C16.3764 57.6398 9.96017 57.9989 3.74219 56.8061C-2.47579 55.6133 -8.30364 52.9054 -13.2251 48.9223C-16.2953 46.4375 -18.9536 43.5044 -21.117 40.2332C-23.2845 36.9559 -21.5381 32.7321 -17.9183 31.2037C-14.2985 29.6753 -10.1914 31.4707 -7.68227 34.4944C-6.66353 35.7221 -5.52258 36.8508 -4.2735 37.8617C-1.17093 40.3727 2.50301 42.0798 6.4229 42.8317C10.3428 43.5837 14.3876 43.3573 18.1991 42.1727C22.0107 40.988 25.4712 38.8816 28.2742 36.0401C31.0772 33.1986 33.1362 29.7097 34.2687 25.8824C35.4013 22.0551 35.5725 18.0075 34.7671 14.0983C33.9618 10.189 32.2047 6.53867 29.6516 3.47064C28.6238 2.23546 27.4797 1.11001 26.2382 0.108109C23.1805 -2.35957 21.3293 -6.44175 22.8081 -10.0821Z" fill="white" fill-opacity="0.17"/>
</svg>
