<svg width="325" height="173" viewBox="0 0 325 173" fill="none" xmlns="http://www.w3.org/2000/svg">
<path d="M116.208 6.73853L105.354 47.2667C104.771 49.4408 103.609 51.4158 101.991 52.9804L93.5573 61.1348C92.2093 62.4382 89.9585 61.8351 89.4428 60.0323L86.2164 48.7537C85.5973 46.5896 85.5781 44.298 86.1606 42.1238L97.015 1.5957L116.208 6.73853ZM111.759 -15.0249C117.059 -13.6048 120.205 -8.15693 118.785 -2.85684L117.494 1.9402L98.3007 -3.20263L99.5912 -7.99967C101.011 -13.2998 106.459 -16.4451 111.759 -15.0249Z" fill="white" fill-opacity="0.17"/>
<path d="M173.822 8.36115L187.642 16.3405C191.253 18.4254 193.989 21.7577 195.334 25.7277L196.106 28.0057L198.465 27.5352C202.576 26.7153 206.83 27.4184 210.441 29.5032L224.276 37.4911C225.348 38.1098 225.703 39.5021 225.068 40.6008L223.92 42.5902L225.86 43.7106C226.932 44.3293 227.287 45.7216 226.652 46.8203L196.904 98.3453C196.27 99.4442 194.887 99.8329 193.815 99.2143L135.598 65.6028C134.527 64.984 134.172 63.592 134.806 62.4931L164.554 10.9681C165.189 9.86941 166.572 9.48035 167.643 10.0991L169.584 11.2195L170.733 9.23013C171.367 8.13144 172.75 7.74238 173.822 8.36115ZM220.039 40.3494L208.144 33.4819C205.449 31.9262 202.285 31.4083 199.245 32.0149L196.017 32.6585L174.573 69.8019C173.938 70.9004 172.555 71.2896 171.483 70.6709C170.412 70.0521 170.057 68.6597 170.691 67.5611L192.129 30.4308L191.065 27.2922C190.07 24.3561 188.04 21.875 185.345 20.3192L173.465 13.4603L146.797 59.6505L159.053 66.7267C162.415 68.6678 164.993 71.7229 166.382 75.3896L166.681 76.2466L167.242 77.9946L169.041 77.6094C172.898 76.7732 176.868 77.2787 180.314 79.0292L181.1 79.4553L193.371 86.5397L220.039 40.3494Z" fill="white" fill-opacity="0.17"/>
<path d="M297.977 -18.5668C300.236 -23.1444 306.764 -23.1444 309.023 -18.5668L317.582 -1.22473L336.72 1.55626C341.772 2.29026 343.789 8.49831 340.133 12.0615L326.285 25.5604L329.554 44.6212C330.417 49.6522 325.136 53.4892 320.618 51.1142L303.5 42.1145L286.382 51.1142C281.864 53.4892 276.583 49.6522 277.446 44.6212L280.715 25.5604L266.867 12.0615C263.211 8.49831 265.228 2.29026 270.28 1.55626L289.418 -1.22473L297.977 -18.5668Z" fill="white" fill-opacity="0.17"/>
<path d="M77.9415 87.0553C80.3172 82.3566 85.2488 79.5095 90.5059 79.8015L124.695 81.7009C125.582 81.75 126.384 82.2392 126.834 83.0039C127.283 83.7688 127.321 84.7077 126.933 85.5059L111.888 116.484C109.521 121.359 104.424 124.301 99.0186 123.915L69.6495 121.812L78.0208 136.312C78.7528 137.58 78.3185 139.201 77.0505 139.933C75.7825 140.665 74.161 140.231 73.4291 138.963L62.8249 120.596C62.78 120.518 62.7395 120.439 62.7033 120.359C62.6481 120.282 62.5966 120.202 62.5493 120.119C62.1118 119.347 62.0895 118.407 62.4899 117.615L77.9415 87.0553Z" fill="white" fill-opacity="0.17"/>
<path d="M85.2638 138.253L79.2372 127.814L98.6401 129.203C106.208 129.745 113.343 125.625 116.658 118.8L125.155 101.304L131.181 111.742C131.496 112.287 131.606 112.926 131.493 113.544C131.493 113.544 131.493 113.544 128.885 113.068L131.493 113.544L131.491 113.555L131.489 113.571L131.479 113.618L131.449 113.769C131.422 113.895 131.383 114.07 131.33 114.29C131.224 114.731 131.061 115.351 130.825 116.11C130.353 117.628 129.584 119.717 128.385 122.051C125.992 126.714 121.841 132.441 114.851 136.476C107.861 140.512 100.825 141.244 95.5904 140.985C92.9695 140.856 90.7759 140.477 89.2256 140.128C88.4493 139.953 87.8306 139.784 87.3965 139.656C87.1795 139.592 87.0081 139.538 86.8857 139.498L86.7394 139.449L86.6944 139.433L86.6792 139.428L86.6734 139.425L87.5597 136.927C86.6691 139.424 86.6734 139.425 86.6734 139.425C86.0809 139.214 85.5785 138.798 85.2638 138.253Z" fill="white" fill-opacity="0.17"/>
<path d="M220.651 105.583C221.407 104.827 221.407 103.601 220.651 102.845C219.895 102.089 218.67 102.089 217.914 102.845L216.545 104.214L215.176 102.845C212.907 100.577 209.23 100.577 206.962 102.845L174.107 135.7C171.839 137.968 171.839 141.645 174.107 143.913L189.165 158.972L198.748 149.389C201.016 147.121 204.694 147.121 206.962 149.389L216.545 158.972L239.817 135.7C242.085 133.432 242.085 129.754 239.817 127.486L238.448 126.117L239.817 124.748C240.573 123.992 240.573 122.766 239.817 122.01C239.061 121.254 237.835 121.254 237.079 122.01L235.71 123.379L228.865 116.534L230.234 115.165C230.99 114.409 230.99 113.183 230.234 112.427C229.478 111.671 228.252 111.671 227.496 112.427L226.127 113.796L219.282 106.952L220.651 105.583ZM206.962 119.272C207.718 118.516 208.944 118.516 209.7 119.272L223.389 132.962C224.145 133.718 224.145 134.944 223.389 135.7C222.633 136.456 221.407 136.456 220.651 135.7L206.962 122.01C206.206 121.254 206.206 120.028 206.962 119.272ZM201.486 127.486L215.176 141.176C215.932 141.931 215.932 143.158 215.176 143.913C214.42 144.669 213.194 144.669 212.438 143.913L198.748 130.224C197.992 129.468 197.992 128.242 198.748 127.486C199.504 126.73 200.73 126.73 201.486 127.486ZM190.534 135.7C191.29 134.944 192.516 134.944 193.272 135.7L198.748 141.176C199.504 141.932 199.504 143.158 198.748 143.913C197.992 144.669 196.766 144.67 196.01 143.913L190.534 138.438C189.778 137.682 189.778 136.456 190.534 135.7Z" fill="white" fill-opacity="0.17"/>
<path d="M212.956 160.859L204.224 152.127C203.468 151.371 202.242 151.371 201.486 152.127L192.755 160.859C193.003 160.892 193.254 160.908 193.507 160.908L212.203 160.908C212.456 160.908 212.708 160.892 212.956 160.859Z" fill="white" fill-opacity="0.17"/>
<path d="M25.2547 20.6805V32.0418H36.6159C37.6617 32.0418 38.5236 32.8942 38.3759 33.9296C37.4596 40.3557 31.9341 45.2965 25.2547 45.2965C17.9343 45.2965 12 39.3622 12 32.0418C12 25.3623 16.9407 19.8368 23.3668 18.9204C24.4021 18.7728 25.2547 19.6348 25.2547 20.6805ZM29.0418 15C36.2096 15 42.0486 20.6897 42.2888 27.799L42.2965 28.2547L42.294 28.5126C42.2774 29.3822 41.583 30.0401 40.7352 30.1361L40.5203 30.1482H29.0418C28.0707 30.1482 27.2704 29.4173 27.161 28.4755L27.1482 28.2547V16.7762C27.1482 15.834 27.8418 15.0204 28.7839 15.0025L29.0418 15Z" fill="white" fill-opacity="0.17"/>
<path d="M13.7694 87V96.6386C13.7694 98.92 15.6188 100.769 17.9002 100.769H27.5387V103.639C25.4205 103.243 23.1496 103.864 21.5111 105.503L11.1668 115.847C10.2107 116.803 9.53248 118.001 9.20455 119.313L8.40246 122.521C8.13203 123.603 8.25796 124.653 8.66488 125.554H4.13081C1.84942 125.554 0 123.705 0 121.423V91.1308C0 88.8494 1.84942 87 4.13081 87H13.7694Z" fill="white" fill-opacity="0.17"/>
<path d="M16.5232 87.6885V96.6386C16.5232 97.399 17.1397 98.0155 17.9001 98.0155H26.8502L16.5232 87.6885Z" fill="white" fill-opacity="0.17"/>
<path d="M23.4583 107.45C25.0225 105.886 27.5589 105.886 29.1233 107.45C30.6875 109.015 30.6875 111.551 29.1233 113.115L18.779 123.46C18.1759 124.063 17.4202 124.49 16.5928 124.698L13.3844 125.499C11.9891 125.848 10.7253 124.584 11.0741 123.189L11.8762 119.981C12.0831 119.153 12.511 118.398 13.114 117.795L23.4583 107.45Z" fill="white" fill-opacity="0.17"/>
<path d="M298.442 93.7378C299.953 91.1213 303.299 90.2247 305.915 91.7354L331.184 106.324C333.8 107.835 334.697 111.181 333.186 113.797L309.479 154.858C307.969 157.475 304.623 158.372 302.006 156.861L276.738 142.272C274.121 140.761 273.225 137.416 274.735 134.799L298.442 93.7378ZM320.063 114.644L303.651 143.071C303.147 143.943 303.446 145.058 304.318 145.562C305.191 146.065 306.306 145.766 306.81 144.894L323.222 116.467C323.725 115.595 323.426 114.48 322.554 113.976C321.682 113.473 320.567 113.772 320.063 114.644ZM296.906 132.869C296.148 134.182 296.598 135.86 297.911 136.618C299.223 137.376 300.901 136.926 301.659 135.614C302.417 134.301 301.967 132.623 300.655 131.865C299.342 131.107 297.664 131.557 296.906 132.869ZM302.386 123.379C301.628 124.691 302.078 126.369 303.39 127.127C304.702 127.885 306.381 127.435 307.139 126.123C307.896 124.81 307.446 123.132 306.134 122.375C304.821 121.617 303.143 122.066 302.386 123.379ZM307.865 113.888C307.107 115.201 307.557 116.879 308.869 117.636C310.182 118.394 311.86 117.945 312.618 116.632C313.376 115.32 312.926 113.641 311.613 112.884C310.301 112.126 308.623 112.575 307.865 113.888ZM286.283 133.033C285.525 134.346 285.975 136.024 287.287 136.782C288.6 137.539 290.278 137.09 291.036 135.777C291.794 134.465 291.344 132.787 290.031 132.029C288.719 131.271 287.041 131.721 286.283 133.033ZM297.225 114.082C296.467 115.395 296.917 117.073 298.229 117.83C299.541 118.588 301.22 118.139 301.977 116.826C302.735 115.514 302.285 113.835 300.973 113.078C299.66 112.32 297.982 112.769 297.225 114.082ZM302.695 104.606C301.938 105.919 302.387 107.597 303.7 108.355C305.012 109.112 306.69 108.663 307.448 107.35C308.206 106.038 307.756 104.36 306.444 103.602C305.131 102.844 303.453 103.294 302.695 104.606ZM291.754 123.558C290.996 124.87 291.446 126.548 292.758 127.306C294.071 128.064 295.749 127.614 296.507 126.302C297.264 124.989 296.815 123.311 295.502 122.553C294.19 121.795 292.512 122.245 291.754 123.558Z" fill="white" fill-opacity="0.17"/>
<path d="M224.982 20.9596C223.705 18.7479 224.463 15.9199 226.674 14.6429L245.362 3.85342C247.574 2.57655 250.402 3.33428 251.679 5.54595L257.844 16.2248C259.121 18.4364 258.363 21.2646 256.152 22.5414L237.464 33.331C235.252 34.6079 232.424 33.85 231.147 31.6384L224.982 20.9596Z" fill="white" fill-opacity="0.17"/>
<path d="M233.666 39.0834C232.929 39.509 232.676 40.4518 233.102 41.1889C233.527 41.926 234.47 42.1787 235.207 41.7531L264.574 24.7981C265.311 24.3726 265.564 23.4297 265.138 22.6926C264.713 21.9555 263.77 21.7028 263.033 22.1284L233.666 39.0834Z" fill="white" fill-opacity="0.17"/>
<path d="M248.36 50.6857C250.929 49.2025 254.214 50.0827 255.697 52.6517L278.973 92.9666C280.456 95.5356 279.576 98.8208 277.007 100.304L255.299 112.837C252.73 114.32 249.445 113.44 247.961 110.871L224.686 70.5562C223.202 67.9871 224.083 64.7021 226.652 63.2188L248.36 50.6857ZM262.092 92.3755L255.89 95.9564C255.034 96.4508 254.74 97.546 255.235 98.4022C255.729 99.2584 256.824 99.552 257.68 99.0576L263.883 95.4767C264.739 94.9823 265.032 93.8871 264.538 93.0309C264.044 92.1747 262.948 91.8812 262.092 92.3755Z" fill="white" fill-opacity="0.17"/>
</svg>
