<svg width="23" height="23" viewBox="0 0 23 23" fill="none" xmlns="http://www.w3.org/2000/svg">
<path d="M2.21786 0C0.992964 0 0 0.992964 0 2.21786V18.4821C0 19.707 0.992964 20.7 2.21786 20.7H18.4821C19.707 20.7 20.7 19.707 20.7 18.4821V2.21786C20.7 0.992964 19.707 0 18.4821 0H2.21786ZM9.39421 5.02191C9.6829 5.31061 9.68288 5.7787 9.39418 6.06741L6.80668 8.65477C6.52717 8.93428 6.07724 8.94445 5.78537 8.67788L4.67644 7.66506C4.37496 7.38972 4.35379 6.92211 4.62913 6.62063C4.90448 6.31915 5.37209 6.29797 5.67357 6.57331L6.2608 7.10967L8.34869 5.02188C8.63741 4.73317 9.1055 4.73319 9.39421 5.02191ZM9.39421 12.4148C9.6829 12.7034 9.68288 13.1716 9.39418 13.4603L6.80668 16.0477C6.52717 16.3271 6.07724 16.3373 5.78537 16.0707L4.67644 15.0579C4.37496 14.7826 4.35379 14.3149 4.62913 14.0135C4.90448 13.712 5.37209 13.6908 5.67357 13.9661L6.2608 14.5026L8.34869 12.4147C8.63741 12.1261 9.1055 12.1261 9.39421 12.4148ZM11.8286 13.3071H15.525C15.9332 13.3071 16.2643 13.6382 16.2643 14.0464C16.2643 14.4547 15.9332 14.7857 15.525 14.7857H11.8286C11.4203 14.7857 11.0893 14.4547 11.0893 14.0464C11.0893 13.6382 11.4203 13.3071 11.8286 13.3071ZM11.0893 6.65357C11.0893 6.24528 11.4203 5.91429 11.8286 5.91429H15.525C15.9332 5.91429 16.2643 6.24528 16.2643 6.65357C16.2643 7.06186 15.9332 7.39286 15.525 7.39286H11.8286C11.4203 7.39286 11.0893 7.06186 11.0893 6.65357Z" fill="#282828"/>
<rect x="12.65" y="12.65" width="10.35" height="10.35" rx="5.175" fill="white"/>
<path d="M17.825 12.65C20.6831 12.65 23 14.9669 23 17.825C23 20.683 20.6831 23 17.825 23C14.967 23 12.65 20.683 12.65 17.825C12.65 14.9669 14.967 12.65 17.825 12.65ZM17.825 13.685C15.5386 13.685 13.685 15.5385 13.685 17.825C13.685 20.1114 15.5386 21.965 17.825 21.965C20.1115 21.965 21.965 20.1114 21.965 17.825C21.965 15.5385 20.1115 13.685 17.825 13.685ZM17.3075 15.2375C17.5616 15.2375 17.7729 15.4205 17.8167 15.6619L17.825 15.755V17.825H19.3775C19.6633 17.825 19.895 18.0567 19.895 18.3425C19.895 18.5965 19.712 18.8078 19.4705 18.8516L19.3775 18.86H17.3075C17.0535 18.86 16.8422 18.6769 16.7984 18.4355L16.79 18.3425V15.755C16.79 15.4692 17.0217 15.2375 17.3075 15.2375Z" fill="#282828"/>
</svg>
