<svg width="40" height="41" viewBox="0 0 40 41" fill="none" xmlns="http://www.w3.org/2000/svg">
<path d="M6.18184 15.3182C6.18184 7.41046 12.5923 1 20.5 1C28.4077 1 34.8181 7.41046 34.8181 15.3182V21.3754L37.886 29.0454C38.0823 29.5358 38.0225 30.091 37.7263 30.5282C37.4304 30.9653 36.9369 31.2272 36.409 31.2272H4.59091C4.06301 31.2272 3.56948 30.9653 3.27354 30.5282C2.97757 30.091 2.91775 29.5354 3.11378 29.0454L6.18184 21.3754V15.3182Z" fill="#363636" fill-opacity="0.95"/>
<path d="M14.3352 34.409C15.0378 37.1604 17.5233 39.1818 20.5001 39.1818C23.4769 39.1818 25.9624 37.1604 26.665 34.409H14.3352Z" fill="#363636" fill-opacity="0.95"/>
</svg>
